<?xml version="1.0" encoding="utf-8"?>
<!-- Generator: Adobe Illustrator 27.0.0, SVG Export Plug-In . SVG Version: 6.00 Build 0)  -->
<svg version="1.1" id="图层_1" xmlns="http://www.w3.org/2000/svg" xmlns:xlink="http://www.w3.org/1999/xlink" x="0px" y="0px"
     viewBox="0 0 100 100" style="enable-background:new 0 0 100 100;" xml:space="preserve">
<style type="text/css">
	.st0{fill:none;}
	.st1{fill:#579DFF;}
	.st2{fill:#2E85FF;}
	.st3{fill:#76BBFF;}
	.st4{fill:#246ACC;}
	.st5{fill:#ACCEFF;}
	.st6{fill:#97C1FF;}
	.st7{fill:#9CB6DD;}
	.st8{fill:#FFFFFF;}
</style>
    <g>
	<rect class="st0" width="100" height="100"/>
        <g>
		<polygon class="st1" points="50.8,17.5 10.5,39.7 49.8,61.9 89.7,39 		"/>
            <polygon class="st2" points="51.2,60.9 51.3,65.1 49.7,66 49.7,79.6 51.6,78.5 51.7,81.1 89.8,58.7 89.8,39.1 		"/>
            <path class="st3" d="M10.2,39.7l2.7-1.6l40.3,24l-2.4,1.3L10.2,39.7z M10.2,39.7"/>
            <path class="st4" d="M10.2,58.8V39.7l40.7,23.8v19L10.2,58.8z M10.2,58.8"/>
            <path class="st5" d="M20,53.2v-4l26.9,15.9v4L20,53.2z M20,53.2"/>
            <path class="st6" d="M13.7,49v-3.8l4,1.7v3.8L13.7,49z M13.7,49"/>
            <path class="st5" d="M20,58.7v-4l26.9,15.9v4L20,58.7z M20,58.7"/>
            <path class="st6" d="M13.7,55.4v-3.8l4,1.7v3.8L13.7,55.4z M13.7,55.4"/>
            <path class="st7" d="M53.3,62.1v18.8l-2.4,1.6v-19L53.3,62.1z M53.3,62.1"/>
            <g>
			<path class="st8" d="M53.6,36.2c0-0.1-0.1-0.3-0.1-0.4c0-0.4,0.2-0.7,0.5-0.9c0.5-0.2,1-0.3,1.5-0.2c0.5,0.1,0.9,0.2,1.3,0.4
				c0.4,0.2,0.8,0.5,0.9,1c0.1,0.4-0.1,0.7-0.4,0.9c-0.6,0.3-1.1,0.3-1.8,0.2c-0.1,0-0.1,0-0.2,0.1c-0.4,0.8-0.8,1.5-1.2,2.3
				c-0.5,0.9-0.9,1.8-1.4,2.7c-0.7,1.3-1.3,2.5-2,3.8c-0.7,1.3-1.3,2.6-2,3.9c-0.3,0.6-0.6,1.2-0.9,1.7c0,0,0,0,0,0.1
				c-5.6-3.5-11.3-6.9-16.9-10.4c0,0,0,0,0,0C38.5,39.7,46.1,37.9,53.6,36.2z"/>
                <path class="st8" d="M58,27.1c-0.4,0.3-0.8,0.6-1.2,0.8c-0.1,0-0.2,0-0.2,0c-0.8-0.2-1.6-0.4-2.5-0.6c-1.1-0.2-2.3-0.4-3.4-0.4
				c-1.1-0.1-2.2-0.1-3.4,0c-1.1,0.1-2.3,0.2-3.4,0.4c-1.3,0.3-2.6,0.6-3.8,1.1c-0.6,0.2-1.1,0.5-1.7,0.8c-0.1,0-0.1,0-0.2,0
				c-0.6-0.2-1.2-0.4-1.8-0.6c0,0,0,0,0,0c0.2-0.1,0.3-0.2,0.5-0.3c0.6-0.3,1.1-0.6,1.7-0.8c0.7-0.3,1.5-0.6,2.2-0.8
				c0.7-0.2,1.5-0.4,2.2-0.6c1-0.2,1.9-0.3,2.9-0.4c1.2-0.1,2.4-0.2,3.7-0.1c1.3,0,2.6,0.1,3.9,0.4c0.9,0.2,1.7,0.3,2.6,0.5
				C56.7,26.6,57.4,26.8,58,27.1C58,27,58,27,58,27.1z"/>
                <path class="st8" d="M67.7,35.2c0.5-0.3,0.9-0.6,1.4-0.9c0.3,0.4,0.6,0.7,0.8,1.1c0.5,0.7,0.9,1.4,1.1,2.2
				c0.4,1.1,0.6,2.3,0.5,3.5c-0.1,0.8-0.2,1.6-0.5,2.3c-0.4,0.9-0.9,1.8-1.5,2.5c-0.4,0.4-0.8,0.9-1.2,1.3c-0.3,0.3-0.7,0.6-1.1,0.9
				c-0.4-0.4-0.7-0.8-1.1-1.2c0.1-0.1,0.2-0.2,0.3-0.3c0.9-0.8,1.6-1.6,2.2-2.7c0.6-1.1,0.9-2.4,0.9-3.7c0-1-0.3-2-0.7-2.9
				c-0.3-0.7-0.7-1.4-1.2-2C67.7,35.3,67.7,35.2,67.7,35.2z"/>
                <path class="st8" d="M40.2,29.8c2.5-0.9,5.1-1.3,7.8-1.4c3.6-0.1,7.1,0.3,10.5,1.4c-0.2,0.1-0.3,0.2-0.4,0.3
				c-0.3,0.2-0.5,0.4-0.8,0.5c-0.1,0-0.2,0-0.2,0c-0.9-0.2-1.8-0.5-2.8-0.6c-2.1-0.4-4.3-0.5-6.4-0.4c-0.9,0.1-1.9,0.2-2.8,0.3
				c-0.8,0.1-1.6,0.3-2.4,0.5c-0.1,0-0.3,0-0.4,0c-0.6-0.2-1.3-0.4-1.9-0.6C40.2,29.9,40.2,29.8,40.2,29.8z"/>
                <path class="st8" d="M65.2,45.7c-0.1-0.1-0.3-0.3-0.4-0.4c-0.3-0.3-0.5-0.6-0.8-0.9c-0.1-0.1-0.1-0.1,0-0.2
				c0.9-1.5,1.3-3.1,1.1-4.8c-0.1-1-0.4-1.9-0.9-2.8c-0.3-0.5-0.6-1-1-1.5c0,0,0-0.1,0-0.1c0.4-0.3,0.8-0.6,1.3-0.8
				c0.1,0,0.1-0.1,0.2,0c0.8,0.9,1.4,2,1.9,3.1c0.5,1.2,0.7,2.4,0.6,3.6c-0.1,0.9-0.3,1.8-0.6,2.6C66.3,44.3,65.8,45,65.2,45.7
				C65.3,45.7,65.3,45.7,65.2,45.7z"/>
                <path class="st8" d="M44.8,31.8c4.6-1,9.1-0.8,13.6,0.3c-0.2,0.2-0.4,0.3-0.5,0.5c-0.2,0.1-0.4,0.3-0.5,0.4
				C57.2,33,57.1,33,57,33c-0.9-0.1-1.7-0.3-2.6-0.4c-1.8-0.2-3.6-0.2-5.4-0.1c-0.3,0-0.6,0.1-1,0.1c-0.1,0-0.2,0-0.4,0
				C46.7,32.3,45.8,32.1,44.8,31.8C44.8,31.8,44.8,31.8,44.8,31.8z"/>
                <path class="st8" d="M62.1,42.9c-0.3-0.4-0.6-0.8-0.8-1.3c-0.1-0.2-0.3-0.4-0.4-0.6c0,0,0-0.1,0-0.2c0.2-0.9,0.2-1.8,0.1-2.7
				c-0.1-0.7-0.3-1.3-0.5-1.9c-0.1-0.4-0.3-0.7-0.5-1c-0.1-0.2-0.1-0.2,0.1-0.3c0.4-0.2,0.8-0.4,1.2-0.6c0.1-0.1,0.2,0,0.2,0.1
				c0.4,0.5,0.7,1.1,0.9,1.7c0.3,0.9,0.6,1.8,0.6,2.7c0.1,0.9,0,1.8-0.3,2.6C62.5,41.9,62.3,42.4,62.1,42.9z"/>
		</g>
	</g>
</g>
</svg>
