<svg viewBox="0 0 1024 1024" version="1.1" xmlns="http://www.w3.org/2000/svg" width="200" height="200">
    <path d="M832.341333 151.438222l41.984 38.456889-625.777777 682.666667-41.984-38.456889z" fill="#4e5969" ></path>
    <path d="M881.777778 56.888889a85.333333 85.333333 0 1 1 0 170.666667 85.333333 85.333333 0 0 1 0-170.666667z m0 56.888889a28.444444 28.444444 0 1 0 0 56.888889 28.444444 28.444444 0 0 0 0-56.888889zM199.111111 796.444444a85.333333 85.333333 0 1 1 0 170.666667 85.333333 85.333333 0 0 1 0-170.666667z m0 56.888889a28.444444 28.444444 0 1 0 0 56.888889 28.444444 28.444444 0 0 0 0-56.888889z" fill="#4e5969" ></path>
</svg>
