<svg viewBox="0 0 1044 1024" version="1.1" xmlns="http://www.w3.org/2000/svg"  width="200" height="200">
    <path d="M652.64384 977.454545l-55.854545 16.29091c-9.309091 2.327273-20.945455-4.654545-18.618182-16.29091l6.981818-58.181818c0-2.327273 2.327273-4.654545 2.327273-6.981818l381.672727-453.818182c4.654545-6.981818 13.963636-6.981818 20.945454-2.327272l48.872728 41.890909c6.981818 4.654545 6.981818 13.963636 2.327272 20.945454L659.625658 972.8c-2.327273 2.327273-4.654545 2.327273-6.981818 4.654545zM941.225658 160.581818c-25.6-6.981818-51.2 6.981818-58.181818 32.581818l-9.309091 32.581819c-30.254545-39.563636-67.490909-76.8-109.381818-104.727273C657.298385 46.545455 529.298385 16.290909 401.298385 39.563636c-130.327273 18.618182-239.709091 88.436364-314.181818 195.490909C12.64384 339.781818-15.283433 470.109091 7.989295 595.781818c23.272727 128 95.418182 239.709091 202.472727 314.181818 62.836364 44.218182 134.981818 72.145455 209.454545 83.781819h6.981818c23.272727 0 41.890909-16.290909 46.545455-39.563637 4.654545-25.6-13.963636-48.872727-39.563636-53.527273-60.509091-9.309091-118.690909-32.581818-169.890909-67.490909-86.109091-60.509091-144.290909-151.272727-162.909091-253.672727-18.618182-102.4 2.327273-207.127273 62.836363-290.909091S312.862022 146.618182 415.262022 130.327273c102.4-18.618182 207.127273 6.981818 295.563636 67.490909 27.927273 20.945455 53.527273 44.218182 76.8 69.818182l-25.6-6.981819c-25.6-6.981818-51.2 6.981818-58.181818 32.581819s6.981818 51.2 32.581818 58.181818l116.363637 34.909091c6.981818 2.327273 13.963636 2.327273 20.945454 2.327272 11.636364 0 23.272727-2.327273 34.909091-9.30909 16.290909-9.309091 30.254545-25.6 34.909091-44.218182l32.581818-114.036364c4.654545-27.927273-11.636364-53.527273-34.909091-60.509091z" fill="#979BA5" ></path>
</svg>
