<?xml version="1.0" standalone="no"?><!DOCTYPE svg PUBLIC "-//W3C//DTD SVG 1.1//EN" "http://www.w3.org/Graphics/SVG/1.1/DTD/svg11.dtd"><svg t="1694586400024" class="icon" viewBox="0 0 1024 1024" version="1.1" xmlns="http://www.w3.org/2000/svg" p-id="6134" xmlns:xlink="http://www.w3.org/1999/xlink" width="400" height="400"><path d="M0 95.573333V768c0 17.066667 13.653333 32.426667 32.426667 32.426667H375.466667c3.413333 0 6.826667 3.413333 6.826666 6.826666v116.053334c0 1.706667-1.706667 3.413333-3.413333 3.413333h-107.52c-8.533333 0-15.36 6.826667-15.36 15.36V989.866667h512v-47.786667c0-8.533333-6.826667-15.36-15.36-15.36h-107.52c-1.706667 0-3.413333-1.706667-3.413333-3.413333v-116.053334c0-3.413333 3.413333-6.826667 6.826666-6.826666h343.04c17.066667 0 32.426667-13.653333 32.426667-32.426667V95.573333c0-35.84-29.013333-64.853333-64.853333-64.853333H63.146667C29.013333 32.426667 0 61.44 0 95.573333z m573.44 834.56h-119.466667c-1.706667 0-3.413333-1.706667-3.413333-3.413333v-116.053333c0-3.413333 3.413333-6.826667 6.826667-6.826667h112.64c3.413333 0 6.826667 3.413333 6.826666 6.826667v114.346666c0 3.413333-1.706667 5.12-3.413333 5.12z m-510.293333-273.066666v-546.133334c0-8.533333 6.826667-15.36 15.36-15.36h865.28c8.533333 0 15.36 6.826667 15.36 15.36v544.426667c0 8.533333-6.826667 15.36-15.36 15.36H78.506667c-8.533333 1.706667-15.36-5.12-15.36-13.653333z" p-id="6135"></path><path d="M747.52 310.613333c-20.48 0-40.96 5.12-56.32 17.066667-5.12 5.12-13.653333 5.12-20.48 1.706667l-71.68-42.666667c-5.12-3.413333-8.533333-8.533333-6.826667-15.36v-8.533333c0-51.2-42.666667-93.866667-95.573333-92.16-47.786667 1.706667-85.333333 39.253333-88.746667 87.04 0 17.066667 3.413333 34.133333 10.24 47.786666 3.413333 5.12 1.706667 10.24 0 15.36l-46.08 80.213334c-6.826667 10.24-18.773333 17.066667-30.72 15.36-5.12 0-10.24-1.706667-15.36 0-47.786667 1.706667-85.333333 40.96-87.04 87.04-1.706667 52.906667 42.666667 97.28 95.573334 95.573333 47.786667-1.706667 85.333333-40.96 87.04-88.746667 0-13.653333-1.706667-27.306667-6.826667-39.253333-3.413333-8.533333-3.413333-18.773333 1.706667-27.306667l49.493333-85.333333c3.413333-5.12 10.24-8.533333 15.36-6.826667s10.24 1.706667 17.066667 1.706667c18.773333 0 37.546667-5.12 51.2-15.36 5.12-3.413333 10.24-3.413333 15.36 0l75.093333 44.373333c5.12 3.413333 10.24 10.24 8.533333 17.066667 0 49.493333 37.546667 88.746667 85.333334 92.16 54.613333 3.413333 100.693333-40.96 97.28-95.573333 1.706667-46.08-35.84-83.626667-83.626667-85.333334zM331.093333 539.306667c-17.066667 0-30.72-13.653333-30.72-30.72s13.653333-30.72 30.72-30.72 30.72 13.653333 30.72 30.72-13.653333 30.72-30.72 30.72z m168.96-244.053334c-17.066667 0-30.72-13.653333-30.72-30.72s13.653333-30.72 30.72-30.72 30.72 13.653333 30.72 30.72-13.653333 30.72-30.72 30.72z m244.053334 136.533334c-17.066667 0-30.72-13.653333-30.72-30.72s13.653333-30.72 30.72-30.72 30.72 13.653333 30.72 30.72-13.653333 30.72-30.72 30.72z" p-id="6136"></path></svg>