<?xml version="1.0" encoding="utf-8"?><!--Generator: Adobe Illustrator 27.0.0, SVG Export Plug-In . SVG Version: 6.00 Build 0)--><svg version="1.1" id="图层_1" xmlns="http://www.w3.org/2000/svg" xmlns:xlink="http://www.w3.org/1999/xlink" x="0px" y="0px" viewBox="0 0 60 60" style="enable-background:new 0 0 60 60" xml:space="preserve"><style type="text/css">.st0{fill:none;}</style><g><rect class="st0" width="60" height="60"/><path d="M58.6,53H1.4C0.6,53,0,52.4,0,51.6V8.4C0,7.6,0.6,7,1.4,7h24.7c0.4,0,0.8,0.2,1,0.4l7.7,8.4
		c0.3,0.3,0.6,0.4,1,0.4h22.8c0.8,0,1.4,0.6,1.4,1.4v34C60,52.4,59.4,53,58.6,53z M4.6,48.4h50.8V20.9H33.2l-8.6-9.3h-20V48.4
		L4.6,48.4z"/></g></svg>