<?xml version="1.0" encoding="utf-8"?><!--Generator: Adobe Illustrator 27.0.0, SVG Export Plug-In . SVG Version: 6.00 Build 0)--><svg version="1.1" id="图层_1" xmlns="http://www.w3.org/2000/svg" xmlns:xlink="http://www.w3.org/1999/xlink" x="0px" y="0px" viewBox="0 0 100 100" style="enable-background:new 0 0 100 100" xml:space="preserve"><style type="text/css">.st0{fill:none;}
	.st1{fill:#2E85FF;}
	.st2{fill:#246ACC;}
	.st3{fill:#579DFF;}
	.st4{fill:#005AC6;}
	.st5{fill:#FFFFFF;}</style><g><rect class="st0" width="100" height="100"/><g><path class="st1" d="M81,44l0.1,33.6L45.7,98l-0.1-33.6L81,44z M81,44"/><path class="st2" d="M45.7,98L19,82.5l-0.1-33.6l26.7,15.5L45.7,98z M45.7,98"/><path class="st3" d="M45.6,64.4L18.9,48.9l35.4-20.4L81,44L45.6,64.4z M45.6,64.4"/><path class="st1" d="M81,30.4l0,10L45.7,60.8l0-10L81,30.4z M81,30.4"/><path class="st2" d="M45.7,60.8L19,45.3l0-10l26.7,15.5L45.7,60.8z M45.7,60.8"/><path class="st3" d="M45.6,50.8L19,35.3l35.4-20.4L81,30.4L45.6,50.8z M45.6,50.8"/><path class="st1" d="M81,17.5l0,10L45.7,47.9l0-10L81,17.5z M81,17.5"/><path class="st2" d="M45.7,47.9L19,32.4l0-10L45.6,38L45.7,47.9z M45.7,47.9"/><path class="st3" d="M45.6,38L19,22.4L54.3,2L81,17.5L45.6,38z M45.6,38"/><path class="st4" d="M75,26.1l0,1L53.1,39.8l0-1L75,26.1z M75,26.1"/><path class="st2" d="M53.1,39.8l-0.7-0.4v-1l0.7,0.4L53.1,39.8z M53.1,39.8"/><path class="st3" d="M53,38.8l-0.7-0.4l21.9-12.7l0.7,0.4L53,38.8z M53,38.8"/><path class="st4" d="M75,38.8l0,1L53.1,52.5l0-1L75,38.8z M75,38.8"/><path class="st2" d="M53.1,52.5l-0.7-0.4v-1l0.7,0.4L53.1,52.5z M53.1,52.5"/><path class="st3" d="M53,51.4l-0.7-0.4l21.9-12.7l0.7,0.4L53,51.4z M53,51.4"/><path class="st4" d="M75.3,55.9l0,17L53.4,85.6l0-17L75.3,55.9z M75.3,55.9"/><path class="st2" d="M53.4,85.6l-0.7-0.4l-0.1-17l0.7,0.4L53.4,85.6z M53.4,85.6"/><path class="st3" d="M53.4,68.5l-0.7-0.4l21.9-12.7l0.7,0.4L53.4,68.5z M72.5,60.8V62l-16.3,9.4v-1.2L72.5,60.8z M72.5,60.8"/><path class="st5" d="M43.5,39.7c0.4,0.2,0.7,0.7,0.7,1.1l0,3.8c0,0.4-0.4,0.3-0.8,0.1l-13.9-8.1c-0.4-0.2-0.7-0.7-0.7-1.1
			l-0.1-3.7c0-0.4,0.3-0.5,0.7-0.3L43.5,39.7z"/><path class="st5" d="M43.6,52.4c0.4,0.2,0.7,0.7,0.7,1.1l0,3.8c0,0.4-0.4,0.3-0.8,0.1l-13.9-8.1c-0.4-0.2-0.7-0.7-0.7-1.1
			l-0.1-3.7c0-0.4,0.3-0.5,0.7-0.3L43.6,52.4z"/></g></g></svg>