<?xml version="1.0" encoding="utf-8"?><!--Generator: Adobe Illustrator 27.0.0, SVG Export Plug-In . SVG Version: 6.00 Build 0)--><svg version="1.1" id="图层_1" xmlns="http://www.w3.org/2000/svg" xmlns:xlink="http://www.w3.org/1999/xlink" x="0px" y="0px" viewBox="0 0 100 100" style="enable-background:new 0 0 100 100" xml:space="preserve"><style type="text/css">.st0{fill:none;}
	.st1{fill:#246ACC;}
	.st2{fill:#96D0EA;}
	.st3{fill:#2E85FF;}
	.st4{fill:#579DFF;}
	.st5{fill:#FFFFFF;}
	.st6{fill:#1D457F;}</style><g><rect class="st0" width="100" height="100"/><g><path class="st1" d="M62.5,34.2L18.7,20.6l-0.4,42.9l44.5,19.8L62.5,34.2z M62.8,83.2"/><path class="st2" d="M23,73.5"/><path class="st3" d="M62.3,36l0.5,47.8l18.6-8.3l0.3-47.5L62.3,36z"/><path class="st4" d="M38.9,16.1l-20.2,4.4L62.3,36l19.4-7.9L38.9,16.1z M80.3,18.1"/><path class="st5" d="M56.7,77l-34-15.7V26.4l34,12.1V77z M41.2,67.6"/><path class="st6" d="M45.9,48v-7.1l-13.6-6.3v7.1l-4.7-2.2v19.7l23.1,11.1v-20L45.9,48z M45.9,48"/><path class="st5" d="M33.4,59.3l0.9,0.4V46.9l-0.9-0.4V59.3z M36.9,61l0.9,0.4V48.6l-0.9-0.4V61z M40.5,62.7l0.9,0.4V50.2
			l-0.9-0.4V62.7z M44,51.5v12.9l0.9,0.4V51.9L44,51.5z M44,51.5"/></g></g></svg>