<?xml version="1.0" encoding="utf-8"?><!--Generator: Adobe Illustrator 27.0.0, SVG Export Plug-In . SVG Version: 6.00 Build 0)--><svg version="1.1" id="图层_1" xmlns="http://www.w3.org/2000/svg" xmlns:xlink="http://www.w3.org/1999/xlink" x="0px" y="0px" viewBox="0 0 100 100" style="enable-background:new 0 0 100 100" xml:space="preserve"><style type="text/css">.st0{fill:none;}
	.st1{fill:#2E85FF;}
	.st2{fill:#246ACC;}
	.st3{fill:#579DFF;}
	.st4{fill:#005AC6;}
	.st5{fill:#FFFFFF;}
	.st6{fill-rule:evenodd;clip-rule:evenodd;fill:#246ACC;}</style><g><rect class="st0" width="100" height="100"/><g><path class="st1" d="M89.5,44l0.1,33.6L54.2,98l-0.1-33.6L89.5,44z M89.5,44"/><path class="st2" d="M54.2,98L27.5,82.5l-0.1-33.6l26.7,15.5L54.2,98z M54.2,98"/><path class="st3" d="M54.1,64.4L27.4,48.9l35.4-20.4L89.5,44L54.1,64.4z M54.1,64.4"/><path class="st1" d="M89.5,30.4l0,10L54.2,60.8l0-10L89.5,30.4z M89.5,30.4"/><path class="st2" d="M54.2,60.8L27.5,45.3l0-10l26.7,15.5L54.2,60.8z M54.2,60.8"/><path class="st3" d="M54.1,50.8L27.4,35.3l35.4-20.4l26.7,15.5L54.1,50.8z M54.1,50.8"/><path class="st1" d="M89.5,17.5l0,10L54.2,47.9l0-10L89.5,17.5z M89.5,17.5"/><path class="st2" d="M54.2,47.9L27.5,32.4l0-10L54.1,38L54.2,47.9z M54.2,47.9"/><path class="st3" d="M54.1,38L27.4,22.4L62.8,2l26.7,15.5L54.1,38z M54.1,38"/><path class="st4" d="M83.5,26.1l0,1L61.6,39.8l0-1L83.5,26.1z M83.5,26.1"/><path class="st2" d="M61.6,39.8l-0.7-0.4v-1l0.7,0.4L61.6,39.8z M61.6,39.8"/><path class="st3" d="M61.5,38.8l-0.7-0.4l21.9-12.7l0.7,0.4L61.5,38.8z M61.5,38.8"/><path class="st4" d="M83.5,38.8l0,1L61.6,52.5l0-1L83.5,38.8z M83.5,38.8"/><path class="st2" d="M61.6,52.5l-0.7-0.4v-1l0.7,0.4L61.6,52.5z M61.6,52.5"/><path class="st3" d="M61.5,51.4l-0.7-0.4l21.9-12.7l0.7,0.4L61.5,51.4z M61.5,51.4"/><path class="st4" d="M83.8,55.9l0,17L61.9,85.6l0-17L83.8,55.9z M83.8,55.9"/><path class="st2" d="M61.9,85.6l-0.7-0.4l-0.1-17l0.7,0.4L61.9,85.6z M61.9,85.6"/><path class="st3" d="M61.9,68.5l-0.7-0.4l21.9-12.7l0.7,0.4L61.9,68.5z M81,60.8V62l-16.3,9.4v-1.2L81,60.8z M81,60.8"/><path class="st5" d="M52,39.7c0.4,0.2,0.7,0.7,0.7,1.1l0,3.8c0,0.4-0.4,0.3-0.8,0.1l-13.9-8.1c-0.4-0.2-0.7-0.7-0.7-1.1l-0.1-3.7
			c0-0.4,0.3-0.5,0.7-0.3L52,39.7z"/><path class="st5" d="M52.1,52.4c0.4,0.2,0.7,0.7,0.7,1.1l0,3.8c0,0.4-0.4,0.3-0.8,0.1l-13.9-8.1c-0.4-0.2-0.7-0.7-0.7-1.1
			l-0.1-3.7c0-0.4,0.3-0.5,0.7-0.3L52.1,52.4z"/></g><g><path id="Path_574_00000073714818941417523030000011364945438095718807_" class="st3" d="M6.9,45.6c3.7,0,11.5-1.8,14.6,0.2
			c11.7,6.7,20.9,23.5,20.9,36.9c0.1,3.6-0.8,7.1-2.6,10.2l3.5-2c3.7-2.2,6.2-8.2,6.3-14.3c0-12.6-6.9-26.7-18.5-33.4
			c-5.4-3.1-9.9-5-18.5-2.5L6.9,45.6z"/><path id="Path_574" class="st1" d="M8.2,44.3c3.7,0,11.5-1.8,14.6,0.2C34.5,51.2,43.7,68,43.6,81.4c0.1,3.6-0.8,7.1-2.6,10.2
			l3.5-2c3.7-2.2,6.2-8.2,6.3-14.3c0-12.6-6.9-26.7-18.5-33.4c-5.4-3.1-9.9-5-18.5-2.5L8.2,44.3z"/><g><g id="Path_571-path"><g><path id="path-2_00000127008746151463673170000002816760154028293509_" class="st6" d="M4.3,55.5c-0.1,13.1,9.4,29.2,21.3,35.8
						c11.2,6.3,20.5,1.8,20.6-11c0.1-11.9-7.8-26-17.9-33.5C23.3,43,16,39.8,10.3,42.9C6.5,45,4.4,49.4,4.3,55.5z"/></g><g><path id="path-2_00000031188536782603307620000006529979574677807527_" class="st6" d="M4.3,55.5c-0.1,13.1,9.4,29.2,21.3,35.8
						c11.2,6.3,20.5,1.8,20.6-11c0.1-11.9-7.8-26-17.9-33.5C23.3,43,16,39.8,10.3,42.9C6.5,45,4.4,49.4,4.3,55.5z"/></g></g><g><path class="st5" d="M4.3,59.4c1.9,1.1,3.7,2.1,5.7,3.2c0-0.5,0.1-1,0.1-1.5c0.2-2.6,0.7-5.1,1.5-7.6c0-0.1-0.1-0.4-0.2-0.5
					c-1.8-1.8-3.3-3.8-4.7-5.9c-0.2-0.3-0.2-0.5,0-0.8c0.3-0.4,0.6-0.8,1-1.3c1.4,2.2,3,4.3,4.8,6.2c0.2-0.4,0.4-0.7,0.6-1.1
					c0.8-1.5,1.8-2.8,3.1-3.9c1.2-1,2.6-1.6,4.2-1.6c0.1,0,0.1,0,0.2,0c0,0,0,0,0.1-0.1c0-0.5,0-1.1,0-1.7c0.6,0.3,1.2,0.5,1.8,0.7
					c0.1,0,0.2,0.2,0.1,0.3c-0.2,0.9,0.3,1.5,1,2.1c2.7,2.3,4.5,5.2,6.1,8.3c1.2,2.4,2.2,5,3,7.6c0.1,0.2,0.2,0.4,0.4,0.4
					c1.9,0.3,3.8,0.3,5.7,0.1c0.6-0.1,1.2-0.2,1.9-0.2c0.1,0.6,0.2,1.1,0.3,1.7c0,0.1-0.1,0.3-0.2,0.3c-2.2,0.4-4.4,0.4-6.6,0.3
					c-0.1,0-0.2,0-0.3,0c-0.2,0-0.4,0-0.6,0c0.1,0.6,0.3,1.2,0.4,1.8c0.7,3.3,1,6.7,1,10.1c0,0.3,0.1,0.5,0.4,0.6c3.5,2,7,4,10.5,6
					c0.3,0.2,0.4,0.3,0.3,0.6c-0.1,0.5-0.2,1.1-0.3,1.6c-3.6-2.1-7.2-4.2-10.8-6.3c-0.2,3.1-0.8,6.2-2.3,8.9
					c1.8,1.9,3.4,3.9,4.9,6.1c-0.8,0.1-1.5,0.1-2.2,0.1c-0.1,0-0.2-0.2-0.3-0.3c-1.1-1.3-2.2-2.7-3.3-4c-0.1-0.1-0.2-0.2-0.4-0.5
					c-0.1,0.2-0.2,0.4-0.4,0.6c-1.1,1-2.3,1.7-3.8,1.9c-0.2,0-0.4,0-0.6-0.1c-3.2-1.7-6.1-3.8-8.6-6.5c-0.9-1-1.5-2.2-2.2-3.4
					c-0.5-0.9-1-1.8-1.5-2.7c-0.1-0.2-0.3-0.3-0.5-0.4c-0.1-0.1-0.2-0.1-0.3-0.1c-0.9-0.1-1.5-0.6-1.9-1.4c-0.2-0.4-0.4-0.7-0.7-1.2
					c0.8,0.1,1.5,0.3,2.2,0.4c-0.3-0.9-0.6-1.7-0.9-2.5c-1-2.8-1.6-5.8-1.6-8.8c0-0.3-0.1-0.5-0.4-0.7c-1.5-0.8-3-1.7-4.5-2.6
					c-0.3-0.2-0.5-0.3-0.5-0.7c-0.1-0.6-0.2-1.2-0.3-1.8C4.3,59.5,4.3,59.4,4.3,59.4z M32.7,75.7c0-0.2,0-0.4,0-0.5
					c-0.1-1.3-0.1-2.5-0.3-3.8c-0.2-2.4-0.6-4.7-1.2-7c0-0.1-0.2-0.3-0.3-0.3c-2.1-0.5-4.1-1.1-6-1.9c-0.8-0.3-1.5-0.7-2.3-1
					c0,0.1,0,0.1,0,0.2c0,2.8,0,5.5,0,8.3c0,0.3,0.2,0.4,0.3,0.5c2.9,1.7,5.8,3.4,8.7,5C32,75.3,32.3,75.5,32.7,75.7z M22.6,72.2
					c0,0.1,0,0.2,0,0.2c0,2.6,0,5.3,0,7.9c0,0.3,0.2,0.4,0.3,0.5c1.6,1,3.3,2.1,4.8,3.2c1.1,0.8,2.1,1.7,3.1,2.6
					c0.1-0.2,0.2-0.3,0.2-0.5c1.1-2.4,1.4-5,1.6-7.7c0-0.3-0.1-0.5-0.4-0.6c-3.1-1.8-6.2-3.6-9.4-5.4C22.9,72.3,22.7,72.3,22.6,72.2
					z M13.2,54.9c-0.9,2.8-1.2,5.7-1.3,8.6c0,0.2,0.2,0.4,0.3,0.5c2.6,1.5,5.3,3.1,7.9,4.6c0.1,0.1,0.2,0.1,0.4,0.2
					c0-0.1,0-0.1,0-0.2c0-2.7,0-5.4,0-8.2c0-0.1-0.1-0.3-0.3-0.4c-1.4-0.9-2.8-1.8-4.2-2.8C15.1,56.4,14.2,55.6,13.2,54.9z
					 M20.6,79.6c0-0.1,0-0.1,0-0.1c0-2.7,0-5.4,0-8.2c0-0.1-0.2-0.3-0.3-0.4c-2.6-1.5-5.3-3.1-7.9-4.6c-0.1-0.1-0.2-0.1-0.4-0.2
					c0,0.2,0,0.3,0,0.4c0.3,3.7,1.4,7.3,3,10.6c0.1,0.2,0.3,0.3,0.4,0.4c1.6,0.7,3.2,1.3,4.8,2C20.3,79.5,20.4,79.5,20.6,79.6z
					 M22.6,47.9c0,0.1,0,0.2,0,0.2c0,3.5,0,7,0,10.6c0,0.1,0.2,0.4,0.3,0.4c1.8,1,3.7,1.8,5.7,2.4c0.6,0.2,1.3,0.4,2,0.6
					C28.8,56.6,26.6,51.8,22.6,47.9z M20.6,46.7c-0.1,0-0.2,0-0.3,0c-1.4,0-2.6,0.7-3.6,1.7c-1.2,1.2-2,2.7-2.7,4.2
					c-0.1,0.3,0,0.4,0.2,0.5c1.3,1.1,2.6,2.1,3.9,3.1c0.8,0.6,1.6,1.1,2.4,1.6C20.6,54,20.6,50.4,20.6,46.7z M22.6,82.9
					c0,2.1,0,4,0,6c0,0.1,0.1,0.3,0.3,0.3c1.1,0.7,2.2,1,3.5,0.9c1.4-0.2,2.4-0.8,3.3-1.9C27.5,86.2,25.2,84.4,22.6,82.9z M16.6,80
					c0,0-0.1,0.1-0.1,0.1c1.2,2.1,2.6,4.2,4.1,6.2c0-1.4,0-2.8,0-4.2c0-0.1-0.1-0.2-0.2-0.3C19.1,81.1,17.8,80.5,16.6,80z"/></g></g></g></g></svg>