<?xml version="1.0" encoding="utf-8"?><!--Generator: Adobe Illustrator 27.0.0, SVG Export Plug-In . SVG Version: 6.00 Build 0)--><svg version="1.1" id="图层_1" xmlns="http://www.w3.org/2000/svg" xmlns:xlink="http://www.w3.org/1999/xlink" x="0px" y="0px" viewBox="0 0 100 100" style="enable-background:new 0 0 100 100" xml:space="preserve"><style type="text/css">.st0{fill:none;}
	.st1{fill:#246ACC;}
	.st2{fill:#FFFFFF;}
	.st3{fill:#2E85FF;}
	.st4{fill:#579DFF;}
	.st5{fill:#1D457F;}</style><g><rect class="st0" width="100" height="100"/><g><g><path class="st1" d="M5.8,50.5V32.4l57,26v19L5.8,50.5z"/><path class="st2" d="M63.8,72.9L7.3,46v-8.1l56.6,26.4V72.9z M38.1,60.9"/><path class="st3" d="M62.9,77.6l31.3-17.1l-0.3-18.1l-31,15.9V77.6z M62.9,77.6"/><path class="st4" d="M5.8,32.4l57,26l31-16l-53.2-20L5.8,32.4z"/><path class="st5" d="M14.8,44.6v-1.4L12,41.9v1.4l-1-0.5v3.8l4.8,2.3v-3.9L14.8,44.6z M14.8,44.6"/><path class="st2" d="M12.2,46.8l0.2,0.1v-2.5l-0.2-0.1V46.8z M12.9,47.1l0.2,0.1v-2.5l-0.2-0.1V47.1z M13.6,47.4l0.2,0.1V45
				l-0.2-0.1V47.4z M14.4,45.3v2.5l0.2,0.1v-2.5L14.4,45.3z M14.4,45.3"/><path class="st5" d="M22.2,48.1v-1.4l-2.8-1.3v1.4l-1-0.5v3.9l4.8,2.3v-4L22.2,48.1z M22.2,48.1"/><path class="st2" d="M19.6,50.3l0.2,0.1v-2.6l-0.2-0.1V50.3z M20.3,50.6l0.2,0.1v-2.6l-0.2-0.1V50.6z M21,51l0.2,0.1v-2.6
				L21,48.4V51z M21.8,48.8v2.6l0.2,0.1v-2.6L21.8,48.8z M21.8,48.8"/><path class="st5" d="M29.6,51.6v-1.4l-2.8-1.3v1.4l-1-0.5v4l4.8,2.3v-4L29.6,51.6z M29.6,51.6"/><path class="st2" d="M27,53.8l0.2,0.1v-2.6L27,51.2V53.8z M27.7,54.2l0.2,0.1v-2.6l-0.2-0.1V54.2z M28.5,54.5l0.2,0.1V52
				l-0.2-0.1V54.5z M29.2,52.3v2.6l0.2,0.1v-2.6L29.2,52.3z M29.2,52.3"/><path class="st5" d="M37,55v-1.5l-2.8-1.3v1.5l-1-0.5v4.1l4.8,2.3v-4.1L37,55z M37,55"/><path class="st2" d="M34.4,57.4l0.2,0.1v-2.6l-0.2-0.1V57.4z M35.1,57.7l0.2,0.1v-2.7l-0.2-0.1V57.7z M35.9,58.1l0.2,0.1v-2.7
				l-0.2-0.1V58.1z M36.6,55.7v2.7l0.2,0.1v-2.7L36.6,55.7z M36.6,55.7"/><path class="st5" d="M44.5,58.5v-1.5l-2.8-1.3v1.5l-1-0.5v4.1l4.8,2.3V59L44.5,58.5z M44.5,58.5"/><path class="st2" d="M41.9,60.9l0.2,0.1v-2.6l-0.2-0.1V60.9z M42.6,61.2l0.2,0.1v-2.7l-0.2-0.1V61.2z M43.4,61.6l0.2,0.1V59
				l-0.2-0.1V61.6z M44.1,59.2v2.7l0.2,0.1v-2.7L44.1,59.2z M44.1,59.2"/><path class="st5" d="M51.5,61.5v-1.5l-2.8-1.3v1.5l-1-0.5v4.1l4.8,2.3V62L51.5,61.5z M51.5,61.5"/><path class="st2" d="M48.9,63.9l0.2,0.1v-2.6l-0.2-0.1V63.9z M49.6,64.2l0.2,0.1v-2.7l-0.2-0.1V64.2z M50.4,64.6l0.2,0.1V62
				l-0.2-0.1V64.6z M51.1,62.2v2.7l0.2,0.1v-2.7L51.1,62.2z M51.1,62.2"/><path class="st5" d="M58.5,64.5v-1.5l-2.8-1.3v1.5l-1-0.5v4.1l4.8,2.3V65L58.5,64.5z M58.5,64.5"/><path class="st2" d="M55.9,66.9l0.2,0.1v-2.6l-0.2-0.1V66.9z M56.6,67.2l0.2,0.1v-2.7l-0.2-0.1V67.2z M57.4,67.6l0.2,0.1V65
				l-0.2-0.1V67.6z M58.1,65.2v2.7l0.2,0.1v-2.7L58.1,65.2z M58.1,65.2"/><polygon class="st2" points="33.7,35.3 32.6,30.9 41.1,30.7 38.9,31.8 47.8,35.4 44.8,37.4 36.6,33.8 			"/><polygon class="st2" points="64,41.3 65.5,45.2 57,45 59.3,44 50.9,40 54.1,38.2 61.9,42.2 			"/><polygon class="st2" points="43.9,44.8 36.6,45 35.1,40.3 38.5,41.9 45.1,38.1 49.3,40 42,43.6 			"/><polygon class="st2" points="54,30.8 61.3,30.7 62.9,35.3 59.5,33.8 52.9,37.6 48.7,35.6 56,32.1 			"/></g><g><path class="st2" d="M65.7,60.5c0.2-0.1,0.3-0.1,0.5-0.2c0.3-0.2,0.6-0.3,0.9-0.5c0,0.1,0,0.2,0,0.2c0,1.5,0.1,3.1,0.1,4.6
				c0,1.3,0.1,2.5,0.1,3.8c0,1.2,0.1,2.3,0.1,3.5c0,0.1,0,0.2-0.1,0.2c-0.4,0.2-0.8,0.4-1.2,0.6c0-0.1,0-0.1,0-0.2
				c0-1.1-0.1-2.2-0.1-3.3c0-1.3-0.1-2.5-0.1-3.8c0-1.2-0.1-2.4-0.1-3.7c0-0.2,0-0.4-0.1-0.6C65.7,61,65.7,60.8,65.7,60.5z"/><path class="st2" d="M90,51.1c-0.1-0.2-0.2-0.4-0.3-0.6c-0.2-0.4-0.6-0.4-1-0.3c-0.7,0.3-1,0.8-1.3,1.4c-0.4,1-0.5,2-0.6,3
				c0,0,0,0,0,0.1c0.1-0.2,0.3-0.4,0.4-0.5c0.5-0.6,1-1.2,1.8-1.4c0.3-0.1,0.6-0.2,0.9-0.2c0.6,0,1.1,0.3,1.4,0.8
				c0.4,0.6,0.4,1.3,0.4,2c0,0.8-0.1,1.7-0.4,2.5c-0.3,0.8-0.7,1.5-1.2,2.2c-0.5,0.6-1.2,1.1-2,1.3c-0.7,0.2-1.2,0.1-1.7-0.5
				c-0.4-0.4-0.5-1-0.7-1.5c-0.2-0.9-0.3-1.8-0.3-2.7c0-1,0-2.1,0.2-3.1c0.1-0.7,0.3-1.5,0.6-2.2c0.4-0.9,0.9-1.7,1.7-2.3
				c0.5-0.3,1-0.6,1.6-0.7c0.7-0.1,1.1,0.3,1.5,0.8c0.1,0.2,0.2,0.4,0.3,0.6c0,0,0,0.1,0,0.2C90.8,50.3,90.5,50.7,90,51.1
				C90.1,51.1,90,51.1,90,51.1z M90.3,56.2c0-0.1,0-0.2,0-0.4c0-0.3-0.1-0.6-0.2-0.8c-0.1-0.4-0.5-0.6-0.9-0.5
				c-0.3,0.1-0.5,0.2-0.8,0.3c-0.6,0.4-1.1,1-1.4,1.6c-0.1,0.2-0.2,0.4-0.1,0.7c0.1,0.3,0.1,0.7,0.2,1c0.1,0.4,0.2,0.7,0.4,1
				c0.2,0.3,0.6,0.4,0.9,0.3c0.5-0.2,1-0.5,1.3-1C90.1,57.8,90.3,57,90.3,56.2z"/><path class="st2" d="M70,70.8c0-0.2,0-0.4,0-0.5c0-0.9,0-1.9-0.1-2.8c0-1.3-0.1-2.5-0.1-3.8c0-1.3-0.1-2.6-0.1-3.9
				c0-0.4,0-0.8,0-1.2c0-0.1,0-0.1,0.1-0.2c1-0.5,1.9-1,2.9-1.5c0.5-0.3,1-0.6,1.6-0.7c0.6-0.1,1.2-0.1,1.7,0.4
				c0.3,0.3,0.4,0.7,0.5,1.1c0.2,0.9,0.1,1.8-0.2,2.6c-0.3,0.8-0.7,1.5-1.2,2.1c-0.6,0.6-1.3,1.1-2,1.5c-0.5,0.3-1,0.5-1.5,0.8
				c-0.1,0-0.1,0.1-0.1,0.2c0,1.3,0.1,2.7,0.1,4c0,0.3,0,0.6,0,1c0,0,0,0.1-0.1,0.1C70.9,70.3,70.4,70.6,70,70.8z M71.2,63.1
				c0.2-0.1,0.3-0.1,0.4-0.2c0.6-0.3,1.2-0.6,1.7-0.9c0.4-0.2,0.8-0.5,1.1-0.9c0.5-0.7,0.7-1.5,0.5-2.3c-0.1-0.4-0.4-0.7-0.8-0.6
				c-0.3,0-0.6,0.1-0.9,0.3c-0.7,0.3-1.3,0.7-2,1c-0.1,0.1-0.1,0.1-0.1,0.2c0,0.7,0,1.4,0.1,2.1C71.1,62.2,71.1,62.7,71.2,63.1z"/><path class="st2" d="M78.9,57.7c0.7,1.7,1.3,3.3,2,5c0,0,0,0,0,0c0-0.2,0.1-0.4,0.1-0.6c0.2-0.7,0.4-1.5,0.5-2.2
				c0.2-0.8,0.4-1.5,0.6-2.3c0.1-0.5,0.3-1.1,0.4-1.6c0-0.1,0.1-0.2,0.2-0.3c0.4-0.2,0.8-0.4,1.2-0.6c0,0.1,0,0.1,0,0.1
				c-0.2,0.7-0.4,1.5-0.6,2.2c-0.3,1.1-0.5,2.1-0.8,3.2c-0.2,0.9-0.5,1.9-0.7,2.8c-0.1,0.4-0.2,0.8-0.3,1.2c0,0.2-0.2,0.2-0.3,0.3
				c-0.3,0.2-0.6,0.3-0.9,0.5c0,0,0,0-0.1,0c-0.2-0.4-0.4-0.8-0.5-1.3c-0.3-0.7-0.6-1.4-0.9-2.1c-0.3-0.7-0.6-1.4-0.9-2.2
				c-0.2-0.4-0.3-0.8-0.5-1.2c0-0.1,0-0.2,0.1-0.2C78.1,58.1,78.5,57.9,78.9,57.7z"/></g></g></g></svg>