<?xml version="1.0" encoding="utf-8"?><!--Generator: Adobe Illustrator 27.0.0, SVG Export Plug-In . SVG Version: 6.00 Build 0)--><svg version="1.1" id="图层_1" xmlns="http://www.w3.org/2000/svg" xmlns:xlink="http://www.w3.org/1999/xlink" x="0px" y="0px" viewBox="0 0 100 100" style="enable-background:new 0 0 100 100" xml:space="preserve"><style type="text/css">.st0{fill:none;}
	.st1{fill:#246ACC;}
	.st2{fill:#2E85FF;}
	.st3{fill:#579DFF;}
	.st4{fill:#FFFFFF;}
	.st5{fill:#005AC6;}
	.st6{fill:#22E05C;}
	.st7{fill:#FC842B;}</style><g><rect class="st0" width="100" height="100"/><g><path class="st1" d="M52.7,96.1L25.5,81.7V14.2l27.2,13.2L52.7,96.1z"/><polygon class="st2" points="52.7,96.1 78.5,82.5 78.4,15.8 52.7,27.4 		"/><path class="st3" d="M25.5,14.2l27.2,13.2l25.7-11.5L51,4.6L25.5,14.2z M25.7,14.6"/><g><polygon class="st4" points="25.5,37.5 52.7,50.8 52.7,46.9 25.5,33.5 			"/><polygon class="st4" points="52.7,64 25.5,49.3 25.5,53.3 52.7,68 			"/><polygon class="st4" points="52.7,79.1 25.5,63.9 25.5,67.9 52.7,83.2 			"/></g><g><polygon class="st5" points="76,65.1 76,78.2 58.1,88 58.1,74.9 			"/><path class="st1" d="M58.1,88l-0.5-0.3l0-13.1l0.6,0.3L58.1,88z M58.1,88"/><polygon class="st3" points="58.1,74.9 57.6,74.6 75.4,64.8 76,65.1 			"/><polygon class="st3" points="73.7,68.9 73.7,69.8 60.4,77.1 60.4,76.2 			"/></g><path class="st4" d="M49.8,36.5c0.3,0.2,0.5,0.4,0.6,0.7l0,2.5c0,0.3-0.3,0.2-0.6,0.1l-11.1-5.4C38.3,34.3,38,34,38,33.7l-0.1-2.5
			c0-0.3,0.2-0.4,0.5-0.2L49.8,36.5z"/><path class="st4" d="M49.8,53.3c0.3,0.2,0.5,0.4,0.6,0.7l0,2.5c0,0.3-0.3,0.2-0.6,0.1L39,51.3c-0.3-0.2-0.5-0.4-0.6-0.7l-0.1-2.5
			c0-0.3,0.2-0.4,0.5-0.2L49.8,53.3z"/><path class="st4" d="M49.8,69.4c0.3,0.2,0.5,0.4,0.6,0.7l0,2.5c0,0.3-0.3,0.2-0.6,0.1L39,67.3c-0.3-0.2-0.5-0.4-0.6-0.7l-0.1-2.5
			c0-0.3,0.2-0.4,0.5-0.2L49.8,69.4z"/><path class="st6" d="M35.4,32.4c0.4-0.6,0.4-1.8-0.1-2.8c-0.5-0.9-1.3-1.2-1.7-0.6c-0.4,0.6-0.4,1.8,0.1,2.8
			C34.2,32.7,35,33,35.4,32.4L35.4,32.4z"/><path class="st6" d="M35.4,26.8c0.4-0.6,0.4-1.8-0.1-2.8c-0.5-0.9-1.3-1.2-1.7-0.6c-0.4,0.6-0.4,1.8,0.1,2.8
			C34.2,27.1,35,27.4,35.4,26.8L35.4,26.8z"/><path class="st6" d="M30.6,24.4c0.4-0.6,0.4-1.8-0.1-2.8c-0.5-0.9-1.3-1.2-1.7-0.6c-0.4,0.6-0.4,1.8,0.1,2.8
			C29.4,24.7,30.2,25,30.6,24.4L30.6,24.4z"/><path class="st6" d="M30.6,30c0.4-0.6,0.4-1.8-0.1-2.8c-0.5-0.9-1.3-1.2-1.7-0.6c-0.4,0.6-0.4,1.8,0.1,2.8
			C29.4,30.3,30.2,30.6,30.6,30L30.6,30z"/><path class="st7" d="M39.4,27.1c-0.1-0.1-0.2-0.3-0.2-0.5c0-0.2,0.1-0.4,0.2-0.3l3.9,1.9c0.1,0.1,0.2,0.3,0.2,0.5
			c0,0.2-0.1,0.4-0.2,0.3L39.4,27.1L39.4,27.1z"/><path class="st7" d="M44.9,29.6c-0.1-0.1-0.2-0.3-0.2-0.5c0-0.2,0.1-0.4,0.2-0.3l3.9,1.9c0.1,0.1,0.2,0.3,0.2,0.5
			c0,0.2-0.1,0.4-0.2,0.3L44.9,29.6L44.9,29.6z"/></g></g></svg>