<?xml version="1.0" encoding="utf-8"?><!--Generator: Adobe Illustrator 27.0.0, SVG Export Plug-In . SVG Version: 6.00 Build 0)--><svg version="1.1" id="图层_1" xmlns="http://www.w3.org/2000/svg" xmlns:xlink="http://www.w3.org/1999/xlink" x="0px" y="0px" viewBox="0 0 100 100" style="enable-background:new 0 0 100 100" xml:space="preserve"><style type="text/css">.st0{fill:none;}
	.st1{fill:#97C1FF;}
	.st2{fill:#579DFF;}
	.st3{fill:#2E85FF;}
	.st4{fill:#76BBFF;}
	.st5{fill:#246ACC;}
	.st6{fill:#ACCEFF;}
	.st7{fill:#9CB6DD;}
	.st8{fill:#FFFFFF;}</style><g><rect class="st0" width="100" height="100"/><path class="st1" d="M48,51v-3.8l4,1.8v3.8L48,51z M48,51"/><path class="st1" d="M48,51v-3.8l4,1.8v3.8L48,51z M48,51"/><g><polygon class="st2" points="50.8,17.3 10.2,39.6 49.8,62 90,38.9 		"/><polygon class="st3" points="51.2,60.9 51.3,65.2 49.7,66.1 49.7,79.8 51.7,78.7 51.7,81.3 90,58.8 90,39 		"/><path class="st4" d="M10,39.6l2.7-1.6l40.6,24.2l-2.4,1.4L10,39.6z M10,39.6"/><path class="st5" d="M10,58.9V39.6l40.9,23.9v19.1L10,58.9z M10,58.9"/><path class="st6" d="M19.8,53.2v-4l27.1,16v4L19.8,53.2z M19.8,53.2"/><path class="st6" d="M19.8,58.8v-4l27.1,16v4L19.8,58.8z M19.8,58.8"/><path class="st7" d="M53.3,62.2v18.9l-2.4,1.6V63.6L53.3,62.2z M53.3,62.2"/><g><path class="st8" d="M64.1,31.6c0.1,0.1,0.2,0.1,0.3,0.2c0.7,0.5,1.4,0.9,2.1,1.4c0.7,0.5,1.3,1,1.9,1.5c0.6,0.5,1.2,1,1.8,1.5
				c0.6,0.5,1.1,1.1,1.6,1.6c0.5,0.5,0.9,1.1,1.3,1.6c0.5,0.6,0.9,1.3,1.3,2c0.3,0.6,0.6,1.1,0.9,1.7c0.2,0.5,0,0.9-0.5,1
				c-0.4,0.1-0.9,0.1-1.3,0c-0.7-0.1-1.3-0.4-1.9-0.7c-0.5-0.3-0.9-0.7-1.1-1.1c-0.3-0.7-0.8-1.4-1.2-2.1c-0.4-0.7-0.9-1.3-1.4-1.9
				c-0.6-0.7-1.2-1.3-1.9-2c-0.7-0.6-1.3-1.2-2.1-1.7c-1.3-0.9-2.6-1.8-4-2.5c-1-0.5-2.1-1-3.2-1.5c-1.1-0.5-2.3-0.9-3.5-1.3
				c-0.7-0.2-1.3-0.4-2-0.6c-0.8-0.2-1.6-0.4-2.4-0.6c-0.9-0.2-1.8-0.4-2.7-0.5c-0.4-0.1-0.7-0.1-1.1-0.2c-0.7-0.2-1.4-0.5-2-1
				c-0.3-0.2-0.5-0.5-0.6-0.9c0-0.1,0-0.2,0-0.2c0-0.1,0.1-0.1,0.1-0.2c0.1-0.1,0.2-0.2,0.4-0.2c0.4-0.1,0.8-0.1,1.2-0.1
				c0.6,0.1,1.3,0.2,1.9,0.3c0.9,0.2,1.8,0.4,2.7,0.6c1.2,0.3,2.3,0.6,3.5,0.9c0.7,0.2,1.5,0.5,2.2,0.7c0.2,0,0.3,0.1,0.5,0.1
				C59.9,29.1,59.9,29.1,64.1,31.6z"/><path class="st8" d="M57.1,32.7c0.5,0.2,1.4,0.7,2.2,1.2c0.8,0.5,1.7,1.1,2.4,1.6c0.6,0.5,1.2,1,1.7,1.5c0.5,0.5,0.9,0.9,1.3,1.4
				c0.5,0.6,0.9,1.2,1.3,1.8c0.3,0.5,0.6,1.1,0.8,1.6c0.1,0.1,0.1,0.3,0.1,0.4c0,0.3-0.2,0.5-0.5,0.6c-0.4,0.1-0.8,0.1-1.3,0.1
				c-0.8-0.1-1.6-0.4-2.3-0.9c-0.4-0.2-0.7-0.5-0.9-0.8c-0.1-0.2-0.2-0.5-0.3-0.7c-0.3-0.6-0.6-1.2-1-1.8c-0.3-0.4-0.7-0.8-1-1.2
				c-0.4-0.4-0.9-0.8-1.3-1.2c-0.5-0.4-1-0.7-1.6-1.1c-0.9-0.6-1.9-1-2.9-1.4c-0.9-0.3-1.7-0.7-2.6-0.9c-0.6-0.2-1.3-0.3-1.9-0.5
				c-0.7-0.2-1.5-0.3-2.2-0.3c-0.5,0-0.9-0.2-1.4-0.4c-0.5-0.2-1-0.5-1.4-0.8c-0.3-0.2-0.5-0.5-0.6-0.8c-0.1-0.3,0.1-0.6,0.4-0.7
				c0.3-0.1,0.7-0.1,1.1-0.1c0.4,0,0.8,0.1,1.3,0.2c0.5,0.1,1,0.1,1.5,0.3c0.8,0.2,1.6,0.4,2.4,0.6c1,0.2,1.9,0.6,2.9,0.9
				C54.5,31.6,55.6,32.1,57.1,32.7z"/><path class="st8" d="M54.3,35.6c0.3,0.2,0.9,0.4,1.4,0.8c0.5,0.3,1,0.7,1.5,1.1c0.4,0.3,0.7,0.7,1,1.1c0.3,0.3,0.5,0.7,0.8,1.1
				c0.3,0.4,0.5,0.9,0.7,1.3c0.2,0.4,0.3,0.8,0.4,1.3c0,0.1,0.1,0.2,0,0.4c0,0.2-0.2,0.4-0.4,0.5c-0.3,0.2-0.6,0.2-0.8,0.2
				c-0.5,0-1-0.2-1.4-0.5c-0.2-0.2-0.4-0.3-0.5-0.6c-0.1-0.2-0.1-0.4-0.1-0.5c-0.1-0.5-0.3-0.9-0.5-1.4c-0.2-0.3-0.4-0.6-0.6-0.9
				c-0.2-0.3-0.5-0.6-0.8-0.9c-0.3-0.3-0.6-0.5-1-0.7c-0.6-0.4-1.2-0.7-1.8-0.9c-0.5-0.2-1.1-0.4-1.7-0.5c-0.4-0.1-0.8-0.2-1.2-0.2
				c-0.5-0.1-1-0.1-1.5-0.1c-0.3,0-0.6-0.1-0.9-0.2c-0.3-0.1-0.6-0.3-0.8-0.6c-0.2-0.2-0.3-0.4-0.3-0.6c0-0.3,0.1-0.5,0.3-0.6
				c0.2-0.1,0.5-0.2,0.8-0.2c0.3,0,0.6,0,0.8,0c0.3,0,0.6,0,1,0.1c0.5,0.1,1,0.1,1.5,0.2c0.6,0.1,1.2,0.3,1.8,0.5
				C52.7,34.9,53.4,35.2,54.3,35.6z"/><path class="st8" d="M49.6,41.7c-0.5-0.3-1-0.6-1.5-1c-0.3-0.3-0.6-0.7-0.7-1.2c-0.1-0.6,0.1-1.1,0.6-1.5
				c0.4-0.3,0.8-0.4,1.2-0.5c0.6-0.1,1.1-0.1,1.7,0c0.7,0.2,1.4,0.4,2.1,0.9c0.4,0.3,0.8,0.6,1.1,1.1c0.2,0.4,0.4,0.7,0.3,1.2
				c0,0.3-0.2,0.6-0.4,0.9c-0.3,0.3-0.7,0.5-1.2,0.6c-0.8,0.2-1.5,0.1-2.2-0.1C50.3,42,50,41.9,49.6,41.7
				C49.6,41.8,49.6,41.7,49.6,41.7z"/></g><path class="st8" d="M47.2,40.3c0,0,0.5,2.2,4.7,2.6l3,5.8l2.8,0.3l-3.1,3.1l-5.3-3.5l2.1,0.2L49,43.1l-7.3,3.1l1.3,1l-6.3,0.2
			L37,44l2,1l8-3l-13.2-1.3l-0.1,0.8l-6.1-2.3l5-1.2l0.6,0.9L47.2,40.3z"/></g></g></svg>