<?xml version="1.0" encoding="utf-8"?><!--Generator: Adobe Illustrator 27.0.0, SVG Export Plug-In . SVG Version: 6.00 Build 0)--><svg version="1.1" id="图层_1" xmlns="http://www.w3.org/2000/svg" xmlns:xlink="http://www.w3.org/1999/xlink" x="0px" y="0px" viewBox="0 0 100 100" style="enable-background:new 0 0 100 100" xml:space="preserve"><style type="text/css">.st0{fill:#2E85FF;}
	.st1{fill:#246ACC;}
	.st2{fill:#579DFF;}
	.st3{fill:#005AC6;}
	.st4{fill:#FFFFFF;}
	.st5{fill:#B0D8FF;}
	.st6{fill:#C5DFFF;}
	.st7{fill:none;}</style><g><path class="st0" d="M93.6,44l0.1,33.6L58.3,98l-0.1-33.6L93.6,44z"/><path class="st1" d="M58.3,98L31.6,82.5l-0.1-33.6l26.7,15.5L58.3,98z"/><path class="st2" d="M58.2,64.4L31.5,48.9l35.4-20.4L93.6,44L58.2,64.4z"/><path class="st0" d="M93.7,30.4v10L58.3,60.8v-10L93.7,30.4z"/><path class="st1" d="M58.3,60.8L31.6,45.3v-10l26.7,15.5L58.3,60.8z"/><path class="st2" d="M58.3,50.8L31.6,35.3L67,14.9l26.7,15.5L58.3,50.8z"/><path class="st0" d="M93.7,17.5v10L58.3,47.9v-10L93.7,17.5z"/><path class="st1" d="M58.3,47.9L31.6,32.4v-10L58.3,38V47.9z"/><path class="st2" d="M58.3,38L31.6,22.4L67,2l26.7,15.5L58.3,38z"/><path class="st3" d="M87.6,26.1v1L65.7,39.8v-1L87.6,26.1z"/><path class="st1" d="M65.7,39.8L65,39.4v-1l0.7,0.4V39.8z"/><path class="st2" d="M65.7,38.8L65,38.4l22-12.7l0.7,0.4L65.7,38.8z"/><path class="st3" d="M87.6,38.8v1L65.7,52.5v-1L87.6,38.8z"/><path class="st1" d="M65.7,52.5L65,52.1v-1l0.7,0.4V52.5z"/><path class="st2" d="M65.7,51.4L65,51.1l22-12.7l0.7,0.4L65.7,51.4z"/><path class="st3" d="M88,55.9v17L66.1,85.6v-17L88,55.9z"/><path class="st1" d="M66.1,85.6l-0.7-0.4l-0.1-17l0.7,0.4L66.1,85.6z"/><path class="st2" d="M66,68.5l-0.7-0.4l21.9-12.7l0.7,0.4L66,68.5z M85.1,60.8V62l-16.3,9.4v-1.2L85.1,60.8z"/><path class="st4" d="M56.2,39.7c0.4,0.2,0.7,0.7,0.7,1.1v3.8c0,0.4-0.4,0.3-0.8,0.1l-13.9-8.1c-0.4-0.2-0.7-0.7-0.7-1.1l-0.1-3.7
		c0-0.4,0.3-0.5,0.7-0.3L56.2,39.7z"/><path class="st4" d="M56.2,52.4c0.4,0.2,0.7,0.7,0.7,1.1v3.8c0,0.4-0.4,0.3-0.8,0.1l-13.9-8.1c-0.4-0.2-0.7-0.7-0.7-1.1l-0.1-3.7
		c0-0.4,0.3-0.5,0.7-0.3L56.2,52.4z"/></g><g><path class="st5" d="M30.2,54.2c3.5,1.8,7,5.3,10,9c1.1,0.1,2.3,0.7,3.5,1.3c4.1,2.1,7.6,6.7,9,11.1c5.8,3,10.6,9.8,10.8,15.3
		c0.2,5.4-4.2,7.4-10,4.3l-33-17.4c-5.2-2.7-10-9-10.2-14.4c-0.8-4.7,3.1-6.3,7.8-3.9C17.7,53,23.3,50.6,30.2,54.2z"/><path class="st6" d="M25.8,56.8l0.2,0.1c0.2,0.1,0.4,0.2,0.7,0.3c0.2,0.1,0.5,0.3,0.7,0.4l0.2,0.1c0.2,0.1,0.3,0.2,0.5,0.3l0.3,0.2
		c0.2,0.1,0.3,0.2,0.5,0.3l0.3,0.2c0.2,0.1,0.4,0.3,0.5,0.4l0.2,0.2c0.2,0.2,0.5,0.4,0.7,0.6l0.1,0.1c0.2,0.2,0.4,0.3,0.6,0.5
		l0.3,0.3l0.4,0.3l0.3,0.3l0.3,0.3l0.3,0.3l0.3,0.3l0.3,0.3l0.3,0.3l0.2,0.2c0.4,0.4,0.7,0.8,1.1,1.2l0.1,0.2
		c0.4,0.4,0.7,0.9,1.1,1.3l0.3,0.4l2.9-1.9l-0.1-0.2L39.3,64c-0.4-0.4-0.7-0.9-1.1-1.3l-0.1-0.1L38,62.5c-0.4-0.4-0.7-0.8-1.1-1.2
		l-0.1-0.1l-0.1-0.1l-0.3-0.3l-0.3-0.3l-0.3-0.3l-0.1-0.3h-0.1l-0.3-0.3L35,59.3l-0.4-0.4l-0.2-0.2l-0.1-0.1
		c-0.2-0.2-0.4-0.3-0.6-0.5L33.6,58c-0.2-0.2-0.5-0.4-0.7-0.6l0,0l-0.2-0.1c-0.2-0.1-0.4-0.3-0.5-0.4l-0.3-0.2
		c-0.2-0.1-0.3-0.2-0.5-0.3l-0.3-0.2c-0.2-0.1-0.3-0.2-0.5-0.3l-0.2-0.1c-0.2-0.1-0.5-0.3-0.7-0.4s-0.5-0.2-0.7-0.3l-0.3-0.2
		c-0.2-0.1-0.3-0.1-0.5-0.2l-0.3-0.1c-0.1-0.1-0.3-0.1-0.4-0.2l-0.3-0.1L27,54.2l-0.2-0.1L26.5,54l-0.3-0.1l-0.3-0.1h-0.1
		c-0.1,0-0.2,0-0.3-0.1h-0.1c-0.2,0-0.4-0.1-0.5-0.1l0,0h-0.1c-0.2,0-0.3,0-0.5,0h-0.1h-0.1h-0.2c-0.2,0-0.3,0-0.5,0h-0.1h-0.1
		c-0.1,0-0.3,0-0.4,0h-0.1h-0.1c-0.1,0-0.3,0-0.4,0.1c-0.1,0-0.1,0-0.2,0l0,0c-0.1,0-0.3,0.1-0.4,0.1h-0.1l0,0
		c-0.2,0.1-0.3,0.1-0.5,0.2l0,0h-0.1c-0.1,0.1-0.3,0.1-0.4,0.2l0,0c-0.1,0.1-0.2,0.1-0.4,0.2l-2.9,1.9l0,0c0.1-0.1,0.3-0.2,0.4-0.2
		c0.1-0.1,0.3-0.1,0.4-0.2h0.1c0.2-0.1,0.3-0.1,0.5-0.2h0.1c0.1,0,0.3-0.1,0.4-0.1h0.2c0.1,0,0.2,0,0.4-0.1h0.2c0.1,0,0.3,0,0.4,0
		h0.2c0.2,0,0.3,0,0.5,0h0.3h0.1c0.2,0,0.3,0,0.5,0H22c0.2,0,0.4,0.1,0.6,0.1h0.1c0.1,0,0.3,0.1,0.4,0.1l0.3,0.1l0.3,0.1L24,56
		l0.4,0.1l0.3,0.1c0.1,0.1,0.3,0.1,0.4,0.2l0.3,0.1C25.5,56.7,25.7,56.8,25.8,56.8z"/><path class="st6" d="M48.3,77.2c0.1,0.2,0.1,0.3,0.2,0.5c0.1,0.2,0.1,0.4,0.2,0.6l2.9-1.9c0-0.2-0.1-0.3-0.1-0.5
		c0-0.1,0-0.1-0.1-0.2c-0.1-0.2-0.1-0.3-0.2-0.5c0-0.1-0.1-0.2-0.1-0.2s0-0.1-0.1-0.1c0-0.1-0.1-0.3-0.1-0.4s-0.1-0.2-0.1-0.3
		c0-0.1-0.1-0.1-0.1-0.2s-0.1-0.2-0.2-0.3c0-0.1-0.1-0.2-0.1-0.3c0-0.1-0.1-0.1-0.1-0.2l-0.2-0.3c0-0.1-0.1-0.1-0.1-0.2
		c-0.1-0.1-0.1-0.2-0.2-0.3l-0.1-0.2v-0.1c-0.1-0.2-0.3-0.4-0.4-0.6l0,0l-0.1-0.1c-0.1-0.2-0.2-0.3-0.3-0.5l-0.1-0.1l-0.2-0.2
		c-0.1-0.1-0.1-0.1-0.2-0.2c-0.1-0.1-0.1-0.2-0.2-0.3L48,69.9l-0.1-0.1c-0.1-0.2-0.3-0.3-0.4-0.5l0,0l0,0c-0.2-0.2-0.3-0.4-0.5-0.6
		l-0.1,0c0-0.1-0.1-0.1-0.2-0.2c-0.1-0.1-0.2-0.2-0.3-0.3l-0.1-0.1c-0.1-0.1-0.2-0.2-0.3-0.3s-0.2-0.2-0.2-0.2l-0.1-0.1
		c-0.2-0.2-0.5-0.4-0.7-0.6l-0.1-0.1l0,0l-0.1-0.1c-0.2-0.1-0.4-0.3-0.6-0.4L44,66.2c-0.2-0.1-0.3-0.2-0.5-0.3l-0.2-0.1
		c-0.2-0.1-0.5-0.3-0.7-0.4l-0.5-0.3L41.9,65l-0.4-0.2l-0.2-0.1c-0.1-0.1-0.3-0.1-0.4-0.2l0,0c-0.2-0.1-0.3-0.1-0.5-0.2l0,0h-0.1
		c-0.1,0-0.3-0.1-0.4-0.1h-0.1h-0.1h-0.2h-0.1c-0.1,0-0.2,0-0.3,0l-2.9,1.9l0,0c0.1,0,0.2,0,0.4,0h0.2H37c0.1,0,0.3,0.1,0.4,0.1h0.1
		c0.2,0.1,0.3,0.1,0.5,0.2l0.1,0.1c0.1,0.1,0.3,0.1,0.4,0.2l0.2,0.1l0.4,0.2l0.2,0.1l0.5,0.3c0.2,0.1,0.5,0.3,0.7,0.4l0.2,0.1
		c0.2,0.1,0.3,0.2,0.5,0.3l0.2,0.1c0.2,0.1,0.4,0.3,0.6,0.4l0.1,0.1l0.1,0.1c0.2,0.2,0.5,0.4,0.7,0.6c0.1,0.1,0.2,0.2,0.3,0.3
		s0.2,0.2,0.3,0.3c0.1,0.1,0.3,0.3,0.4,0.4c0.1,0.1,0.1,0.1,0.2,0.2c0.2,0.2,0.4,0.4,0.6,0.6l0,0c0.2,0.2,0.3,0.4,0.5,0.6l0.2,0.2
		c0.1,0.2,0.2,0.3,0.4,0.5l0.2,0.2c0.1,0.2,0.3,0.4,0.4,0.6l0.1,0.1c0.2,0.2,0.3,0.5,0.5,0.7l0.1,0.2c0.1,0.2,0.2,0.3,0.3,0.5
		l0.2,0.3c0.1,0.2,0.2,0.3,0.2,0.5c0.1,0.1,0.1,0.2,0.2,0.3c0.1,0.1,0.1,0.3,0.2,0.4c0.1,0.1,0.1,0.3,0.2,0.4
		C48.2,76.9,48.2,77.1,48.3,77.2z"/><path class="st6" d="M59.6,93.7c0.1,2.4-0.7,4.1-2.1,5l2.9-1.9c1.4-0.9,2.2-2.6,2.1-5c0-0.2,0-0.4,0-0.5s0-0.1,0-0.2s0-0.2,0-0.4
		c0-0.1,0-0.1,0-0.2s0-0.3-0.1-0.3c0-0.1,0-0.1,0-0.2s0-0.2-0.1-0.3c0,0,0,0,0-0.1s0-0.1,0-0.2s-0.1-0.3-0.1-0.3
		c0-0.1,0-0.1-0.1-0.2c0-0.1-0.1-0.2-0.1-0.3v-0.1v-0.1c-0.1-0.3-0.2-0.5-0.3-0.8l0,0v-0.1c-0.1-0.2-0.2-0.4-0.3-0.6v-0.1v-0.1
		c-0.1-0.2-0.2-0.4-0.3-0.7l0,0l0,0c-0.1-0.2-0.2-0.4-0.3-0.6v-0.1l-0.1-0.1c-0.1-0.1-0.2-0.3-0.3-0.4L60,84.5l-0.1-0.1
		c-0.1-0.1-0.2-0.3-0.3-0.4l-0.1-0.1l0,0c-0.1-0.2-0.3-0.4-0.4-0.6l0,0L59,83.2c-0.1-0.2-0.2-0.3-0.4-0.5v-0.1l-0.1-0.1
		c-0.1-0.1-0.2-0.3-0.3-0.4L58.1,82L58,81.9c-0.1-0.1-0.3-0.3-0.4-0.5l-0.1-0.1l0,0c-0.2-0.2-0.4-0.4-0.5-0.6l0,0l0-0.1
		c-0.2-0.2-0.3-0.3-0.5-0.5L56.4,80l0,0c-0.2-0.2-0.5-0.4-0.7-0.6l-0.1-0.1l-0.1-0.1l-0.3-0.3l-0.3-0.2l-0.3-0.2l-0.1-0.1l-0.1-0.1
		c-0.2-0.1-0.4-0.3-0.6-0.4l0,0c-0.2-0.1-0.4-0.3-0.6-0.4L53,77.3c-0.2-0.1-0.3-0.2-0.5-0.3l-0.2-0.1c-0.2-0.1-0.4-0.2-0.7-0.4
		l-2.9,1.9l0,0c0.2,0.1,0.4,0.2,0.6,0.4l0.2,0.1c0.2,0.1,0.3,0.2,0.5,0.3l0.2,0.1c0.2,0.1,0.4,0.3,0.6,0.4l0,0
		c0.2,0.1,0.4,0.3,0.6,0.4l0.2,0.2l0.3,0.2l0.2,0.2l0.3,0.3l0.2,0.2c0.2,0.2,0.5,0.4,0.7,0.6l0.1,0.1c0.2,0.2,0.3,0.3,0.5,0.5
		l0.1,0.1c0.2,0.2,0.4,0.4,0.5,0.6l0.1,0.1c0.1,0.2,0.3,0.3,0.4,0.5l0.2,0.2c0.1,0.1,0.2,0.3,0.3,0.4l0.1,0.2
		c0.1,0.2,0.2,0.3,0.4,0.5l0.1,0.1c0.1,0.2,0.3,0.4,0.4,0.6l0.1,0.2c0.1,0.1,0.2,0.3,0.3,0.4l0.1,0.2c0.1,0.1,0.2,0.3,0.3,0.4
		l0.1,0.2c0.1,0.2,0.2,0.4,0.3,0.6l0,0c0.1,0.2,0.2,0.4,0.3,0.7l0.1,0.2c0.1,0.2,0.2,0.4,0.3,0.6v0.1c0.1,0.3,0.2,0.5,0.3,0.8
		l0.1,0.2c0,0.1,0.1,0.3,0.1,0.3c0,0.1,0,0.1,0.1,0.2c0,0.1,0.1,0.3,0.1,0.3c0,0.1,0,0.1,0.1,0.2c0,0.1,0.1,0.2,0.1,0.3
		c0,0.1,0,0.1,0,0.2s0,0.2,0.1,0.3c0,0.1,0,0.1,0,0.2s0,0.2,0,0.4c0,0.1,0,0.1,0,0.2C59.6,93.4,59.6,93.5,59.6,93.7z"/><path class="st1" d="M50.3,97.3L17.3,80c-5.5-2.8-9.9-9.1-10.2-14.2l0,0c-0.3-1.6,0-2.9,0.8-3.7c0.6-0.7,1.5-1,2.7-1
		s2.5,0.4,3.8,1.1l0.4,0.2V62c-0.1-2.3,0.5-4.1,1.8-5.3c1-1,2.5-1.5,4.1-1.5c1.8,0,3.8,0.6,5.9,1.7c3.9,2,7.6,6,9.9,8.9l0.1,0.1h0.1
		c1.1,0.1,2.2,0.7,3.4,1.2c4,2.1,7.5,6.5,8.8,11v0.1H49c5.7,3,10.5,9.7,10.7,15.1c0.1,1.9-0.4,3.4-1.4,4.4c-0.9,0.8-2,1.2-3.3,1.2
		C53.7,98.7,52,98.3,50.3,97.3z"/><path class="st4" d="M20.9,55v0.5c1.7,0,3.7,0.6,5.8,1.6c3.9,2,7.5,5.9,9.9,8.8l0.1,0.2h0.2c1,0,2.1,0.6,3.2,1.2
		c3.8,2,7.4,6.5,8.7,10.8l0.1,0.2l0.2,0.1c5.6,2.9,10.4,9.6,10.6,14.9c0.1,1.8-0.4,3.3-1.4,4.2c-0.8,0.7-1.9,1.1-3.1,1.1
		c-1.4,0-3.1-0.5-4.8-1.4l-33-17.3c-2.5-1.3-5-3.5-6.8-6c-1.9-2.7-3.1-5.5-3.2-8l0,0l0,0c-0.2-1.5,0-2.7,0.8-3.5
		c0.6-0.6,1.5-0.9,2.5-0.9c1.1,0,2.4,0.4,3.7,1l0.8,0.4V62c-0.1-2.2,0.5-4,1.7-5.1c1-0.9,2.3-1.4,4-1.4V55 M20.9,55
		c-3.8,0-6.4,2.5-6.2,7c-1.4-0.7-2.8-1.1-4-1.1c-2.6,0-4.3,1.8-3.8,5c0.2,5.4,5,11.7,10.2,14.4l33,17.3c1.9,1,3.6,1.4,5,1.4
		c3.1,0,5.1-2.1,4.9-5.8c-0.2-5.4-5.1-12.2-10.8-15.3c-1.3-4.4-4.9-9-9-11.1c-1.2-0.6-2.3-1.2-3.5-1.3c-3-3.7-6.5-7.2-10-9
		C24.7,55.5,22.7,55,20.9,55L20.9,55z"/></g><rect class="st7" width="100" height="100"/></svg>