<?xml version="1.0" encoding="utf-8"?><!--Generator: Adobe Illustrator 27.0.0, SVG Export Plug-In . SVG Version: 6.00 Build 0)--><svg version="1.1" id="图层_1" xmlns="http://www.w3.org/2000/svg" xmlns:xlink="http://www.w3.org/1999/xlink" x="0px" y="0px" viewBox="0 0 100 100" style="enable-background:new 0 0 100 100" xml:space="preserve"><style type="text/css">.st0{fill:#246ACC;}
	.st1{fill:#96D0EA;}
	.st2{fill:#76BBFF;}
	.st3{fill:#2E85FF;}
	.st4{fill:#579DFF;}
	.st5{fill:#CEE4F0;}
	.st6{fill:#88CBE5;}
	.st7{fill:#5BAED8;}
	.st8{fill:#B2DBED;}
	.st9{fill:#A3D6E8;}
	.st10{fill:#3577C6;}
	.st11{fill:#EFEFEF;}
	.st12{fill:none;}</style><g><g><path class="st0" d="M60.9,35.3L22.7,18.6L23,74l38.2,16.8L60.9,35.3z M61.2,90.7"/><path class="st1" d="M23,74.1h-0.1l-0.3-55.9l38.6,16.9h0.1L61.5,91L23,74.1z M23,18.9l0.1,54.9l37.8,16.5l-0.1-54.9L23,18.9z
			 M60.8,35.5"/><path class="st0" d="M63.6,39.1L25.4,22.3l0.1,21.5l38.2,16.8L63.6,39.1z M63.7,60.6"/><path class="st1" d="M22.7,40.3h-0.1l-0.1-22l38.6,16.9h0.1l0.1,22L22.7,40.3z M23.1,18.9v21l37.8,16.5l-0.1-21L23.1,18.9z
			 M60.8,35.5"/><g><g><polygon class="st1" points="23,69.7 23,67.8 31.8,71.7 31.8,73.6 				"/><polygon class="st2" points="23.4,68.5 23.4,69.5 31.2,72.9 31.2,71.9 				"/></g><g><polygon class="st1" points="23,65.7 23,63.7 31.8,67.6 31.8,69.5 				"/><polygon class="st2" points="23.4,64.5 23.4,65.4 31.2,68.8 31.2,67.8 				"/></g><g><polygon class="st1" points="23,61.6 23,59.7 31.8,63.5 31.8,65.5 				"/><polygon class="st2" points="23.4,60.4 23.4,61.4 31.2,64.7 31.2,63.8 				"/></g><g><polygon class="st1" points="23,57.5 23,55.6 31.8,59.5 31.8,61.4 				"/><polygon class="st2" points="23.4,56.3 23.4,57.3 31.2,60.7 31.2,59.7 				"/></g><g><polygon class="st1" points="23,53.4 23,51.5 31.8,55.4 31.8,57.3 				"/><polygon class="st2" points="23.4,52.2 23.4,53.2 31.2,56.6 31.2,55.6 				"/></g><g><polygon class="st1" points="23,49.4 23,47.4 31.8,51.3 31.8,53.2 				"/><polygon class="st2" points="23.4,48.2 23.4,49.1 31.2,52.5 31.2,51.5 				"/></g><g><polygon class="st1" points="23,45.3 23,43.4 31.8,47.2 31.8,49.2 				"/><polygon class="st2" points="23.4,44.1 23.4,45.1 31.2,48.4 31.2,47.5 				"/></g><g><polygon class="st1" points="23,41.2 23,39.3 31.8,43.2 31.8,45.1 				"/><polygon class="st2" points="23.4,40 23.4,41 31.2,44.4 31.2,43.4 				"/></g><g><polygon class="st1" points="23,37.2 23,35.2 31.8,39.1 31.8,41 				"/><polygon class="st2" points="23.4,36 23.4,36.9 31.2,40.3 31.2,39.3 				"/></g><g><polygon class="st1" points="23,33.1 23,31.2 31.8,35 31.8,37 				"/><polygon class="st2" points="23.4,31.9 23.4,32.8 31.2,36.2 31.2,35.3 				"/></g><g><polygon class="st1" points="23,29 23,27.1 31.8,30.9 31.8,32.9 				"/><polygon class="st2" points="23.4,27.8 23.4,28.8 31.2,32.2 31.2,31.2 				"/></g><g><polygon class="st1" points="23,24.9 23,23 31.8,26.9 31.8,28.8 				"/><polygon class="st2" points="23.4,23.7 23.4,24.7 31.2,28.1 31.2,27.1 				"/></g><g><polygon class="st1" points="23,20.9 23,18.9 31.8,22.8 31.8,24.7 				"/><polygon class="st2" points="23.4,19.7 23.4,20.6 31.2,24 31.2,23 				"/></g></g><g><g><polygon class="st1" points="40.7,77.3 40.7,75.3 49.5,79.2 49.5,81.1 				"/><polygon class="st2" points="41.1,76 41.1,77 48.9,80.4 48.9,79.4 				"/></g><g><polygon class="st1" points="40.7,73.2 40.7,71.2 49.5,75.1 49.5,77 				"/><polygon class="st2" points="41.1,72 41.1,72.9 48.9,76.3 48.9,75.4 				"/></g><g><polygon class="st1" points="40.7,69.1 40.7,67.2 49.5,71 49.5,73 				"/><polygon class="st2" points="41.1,67.9 41.1,68.9 48.9,72.2 48.9,71.3 				"/></g><g><polygon class="st1" points="40.7,65 40.7,63.1 49.5,67 49.5,68.9 				"/><polygon class="st2" points="41.1,63.8 41.1,64.8 48.9,68.2 48.9,67.2 				"/></g><g><polygon class="st1" points="40.7,61 40.7,59 49.5,62.9 49.5,64.8 				"/><polygon class="st2" points="41.1,59.8 41.1,60.7 48.9,64.1 48.9,63.1 				"/></g><g><polygon class="st1" points="40.7,56.9 40.7,55 49.5,58.8 49.5,60.8 				"/><polygon class="st2" points="41.1,55.7 41.1,56.7 48.9,60 48.9,59.1 				"/></g><g><polygon class="st1" points="40.7,52.8 40.7,50.9 49.5,54.8 49.5,56.7 				"/><polygon class="st2" points="41.1,51.6 41.1,52.6 48.9,56 48.9,55 				"/></g><g><polygon class="st1" points="40.7,48.8 40.7,46.8 49.5,50.7 49.5,52.6 				"/><polygon class="st2" points="41.1,47.5 41.1,48.5 48.9,51.9 48.9,50.9 				"/></g><g><polygon class="st1" points="40.7,44.7 40.7,42.7 49.5,46.6 49.5,48.5 				"/><polygon class="st2" points="41.1,43.5 41.1,44.4 48.9,47.8 48.9,46.9 				"/></g><g><polygon class="st1" points="40.7,40.6 40.7,38.7 49.5,42.5 49.5,44.5 				"/><polygon class="st2" points="41.1,39.4 41.1,40.4 48.9,43.7 48.9,42.8 				"/></g><g><polygon class="st1" points="40.7,36.5 40.7,34.6 49.5,38.5 49.5,40.4 				"/><polygon class="st2" points="41.1,35.3 41.1,36.3 48.9,39.7 48.9,38.7 				"/></g><g><polygon class="st1" points="40.7,32.5 40.7,30.5 49.5,34.4 49.5,36.3 				"/><polygon class="st2" points="41.1,31.3 41.1,32.2 48.9,35.6 48.9,34.6 				"/></g><g><polygon class="st1" points="40.7,28.4 40.7,26.5 49.5,30.3 49.5,32.3 				"/><polygon class="st2" points="41.1,27.2 41.1,28.2 48.9,31.5 48.9,30.6 				"/></g></g><g><g><polygon class="st1" points="31.9,26.9 31.9,25 40.7,28.8 40.7,30.8 				"/><polygon class="st2" points="32.3,25.7 32.3,26.6 40.1,30 40.1,29.1 				"/></g><g><polygon class="st1" points="31.9,30.9 31.9,29 40.7,32.9 40.7,34.8 				"/><polygon class="st2" points="32.3,29.7 32.3,30.7 40.1,34.1 40.1,33.1 				"/></g><g><polygon class="st1" points="31.9,35 31.9,33 40.7,36.9 40.7,38.8 				"/><polygon class="st2" points="32.3,33.7 32.3,34.7 40.1,38.1 40.1,37.1 				"/></g><g><polygon class="st1" points="31.9,39 31.9,37.1 40.7,40.9 40.7,42.8 				"/><polygon class="st2" points="32.3,37.8 32.3,38.7 40.1,42.1 40.1,41.2 				"/></g><g><polygon class="st1" points="31.9,43 31.9,41.1 40.7,44.9 40.7,46.9 				"/><polygon class="st2" points="32.3,41.8 32.3,42.8 40.1,46.2 40.1,45.2 				"/></g><g><polygon class="st1" points="31.9,47 31.9,45.1 40.7,49 40.7,50.9 				"/><polygon class="st2" points="32.3,45.8 32.3,46.8 40.1,50.2 40.1,49.2 				"/></g><g><polygon class="st1" points="31.9,51.1 31.9,49.1 40.7,53 40.7,54.9 				"/><polygon class="st2" points="32.3,49.9 32.3,50.8 40.1,54.2 40.1,53.3 				"/></g><g><polygon class="st1" points="31.9,55.1 31.9,53.2 40.7,57 40.7,59 				"/><polygon class="st2" points="32.3,53.9 32.3,54.9 40.1,58.2 40.1,57.3 				"/></g><g><polygon class="st1" points="31.9,59.1 31.9,57.2 40.7,61.1 40.7,63 				"/><polygon class="st2" points="32.3,57.9 32.3,58.9 40.1,62.3 40.1,61.3 				"/></g><g><polygon class="st1" points="31.9,63.2 31.9,61.2 40.7,65.1 40.7,67 				"/><polygon class="st2" points="32.3,62 32.3,62.9 40.1,66.3 40.1,65.3 				"/></g><g><polygon class="st1" points="31.9,67.2 31.9,65.3 40.7,69.1 40.7,71.1 				"/><polygon class="st2" points="32.3,66 32.3,67 40.1,70.3 40.1,69.4 				"/></g><g><polygon class="st1" points="31.9,71.2 31.9,69.3 40.7,73.2 40.7,75.1 				"/><polygon class="st2" points="32.3,70 32.3,71 40.1,74.4 40.1,73.4 				"/></g></g><g><g><polygon class="st1" points="50.4,35.2 50.4,33.2 59.2,37.1 59.2,39 				"/><polygon class="st2" points="50.9,33.9 50.9,34.9 58.7,38.3 58.7,37.3 				"/></g><g><polygon class="st1" points="50.4,39.2 50.4,37.3 59.2,41.1 59.2,43.1 				"/><polygon class="st2" points="50.9,38 50.9,38.9 58.7,42.3 58.7,41.4 				"/></g><g><polygon class="st1" points="50.4,43.2 50.4,41.3 59.2,45.2 59.2,47.1 				"/><polygon class="st2" points="50.9,42 50.9,43 58.7,46.4 58.7,45.4 				"/></g><g><polygon class="st1" points="50.4,47.3 50.4,45.3 59.2,49.2 59.2,51.1 				"/><polygon class="st2" points="50.9,46 50.9,47 58.7,50.4 58.7,49.4 				"/></g><g><polygon class="st1" points="50.4,51.3 50.4,49.4 59.2,53.2 59.2,55.1 				"/><polygon class="st2" points="50.9,50.1 50.9,51 58.7,54.4 58.7,53.5 				"/></g><g><polygon class="st1" points="50.4,55.3 50.4,53.4 59.2,57.2 59.2,59.2 				"/><polygon class="st2" points="50.9,54.1 50.9,55.1 58.7,58.5 58.7,57.5 				"/></g><g><polygon class="st1" points="50.4,59.3 50.4,57.4 59.2,61.3 59.2,63.2 				"/><polygon class="st2" points="50.9,58.1 50.9,59.1 58.7,62.5 58.7,61.5 				"/></g><g><polygon class="st1" points="50.4,63.4 50.4,61.4 59.2,65.3 59.2,67.2 				"/><polygon class="st2" points="50.9,62.2 50.9,63.1 58.7,66.5 58.7,65.6 				"/></g><g><polygon class="st1" points="50.4,67.4 50.4,65.5 59.2,69.3 59.2,71.3 				"/><polygon class="st2" points="50.9,66.2 50.9,67.2 58.7,70.6 58.7,69.6 				"/></g><g><polygon class="st1" points="50.4,71.4 50.4,69.5 59.2,73.4 59.2,75.3 				"/><polygon class="st2" points="50.9,70.2 50.9,71.2 58.7,74.6 58.7,73.6 				"/></g><g><polygon class="st1" points="50.4,75.5 50.4,73.5 59.2,77.4 59.2,79.3 				"/><polygon class="st2" points="50.9,74.3 50.9,75.2 58.7,78.6 58.7,77.6 				"/></g><g><polygon class="st1" points="50.4,79.5 50.4,77.6 59.2,81.4 59.2,83.4 				"/><polygon class="st2" points="50.9,78.3 50.9,79.3 58.7,82.6 58.7,81.7 				"/></g></g><path class="st1" d="M26.8,81.7"/><path class="st2" d="M61.2,86.5L23,69.9V74l38.2,16.8V86.5z M61.2,90.7"/><path class="st1" d="M22.9,74.1h-0.1v-4.6l38.6,16.9h0.1V91L22.9,74.1z M23.1,70.1v3.6l37.8,16.5v-3.6L23.1,70.1z M60.9,86.6"/><path class="st3" d="M61.4,34.6l-0.1,56l16.1-9.8L77.4,25L61.4,34.6z M77.4,25"/><path class="st1" d="M61.1,34.7v-0.1l16.6-10l-0.1,56.2V81L60.9,91L61.1,34.7z M77.3,25.3l-15.6,9.4l-0.3,55.4L77,80.7L77.3,25.3z
			 M77,80.7"/><path class="st4" d="M40.2,9.3l-17.3,8.9l38.2,16.7l16.2-10.1L40.2,9.3z M77.3,24.7"/><path class="st1" d="M22.3,18.2L40.1,9h0.1l37.5,15.6L61.1,35.1L22.3,18.2z M40.2,9.5l-16.9,8.7l37.8,16.4l15.6-9.9L40.2,9.5z
			 M76.7,24.7"/><g><path class="st5" d="M29,35.3l1.5-0.8l0.6-0.3l0.4-0.2c1.1,0.6,2.5,1.3,3.8,1.8c0.8,0.3,1.5,0.5,2.3,0.6c1.5,0.5,3,0.5,4.7,0.3
				l-2.5,1.1c-3.6,0.2-7-0.6-10-2.2L29,35.3z M41.5,67.5h0.2c2.3,0,4.7-0.3,7-1.1c-1.7,1-3.8,1.6-5.9,1.6H40L41.5,67.5z M48.7,69.6
				c-0.4,0.3-0.9,0.5-1.5,0.3c0.6-0.2,1.1-0.5,1.7-0.6L48.7,69.6z M48.9,69.3"/><path class="st6" d="M48.9,69.3c-0.6,0.2-1.1,0.3-1.7,0.6c-1.5,0.5-3.2,0.8-4.9,0.8h-2.5c-0.9-0.8-1.7-1.6-2.5-2.4
				c-1.9-1.8-3.4-3.5-4.9-5.3c-0.8-0.8-1.3-1.8-1.9-2.6c-0.8-1-1.3-2.1-1.9-3l-0.4-0.8L27.9,56l-0.4-0.8l-0.4-0.6L27,53.9
				c-0.4-0.8-0.6-1.8-0.8-2.6C26,51,26,50.8,26,50.7v-2.2c0-0.6,0-1.4,0.2-2.1v-0.2l0.2-0.3c0-0.2,0-0.3,0.2-0.5
				c0.2-0.2,0.2-0.3,0.2-0.5l0.2-0.5v-0.5c0.2-1.3,0.2-2.6,0-3.9l-0.6-2.4l0.4-0.5l1.1-1.1l0.9-1.1l0.9,0.5c3,1.8,6.4,2.6,10,2.2
				c0.9,1,1.9,1.9,3,2.9c1.9,1.6,4,3.1,6.4,4.3l1.5,0.6l2.5,5.1c-1.1,2.9-1.1,5.8,0,8.5c0.2,1,0.2,1.9,0.2,2.9
				c0,1.1-0.2,2.2-0.6,3.4c-0.4,1-1.1,1.9-2.1,2.7L50,68.5v0.2C49.6,69,49.2,69.1,48.9,69.3L48.9,69.3z"/><path class="st3" d="M29,39.9l-0.4,0.3c0.2,0.3,0.4,0.6,0.4,1c0.4,1.3,0.6,2.6,0.4,3.9v0.5c0,0.2,0,0.3-0.2,0.5
				C29,46.2,29,46.3,29,46.5L28.8,47l-0.2,0.3v-0.6c-0.2,0.6-0.2,1.4-0.2,2.1v1.8c0.2,0.2,0.2,0.5,0.2,0.6l0.2,0.6
				c0.2,1,0.6,1.9,0.9,2.7l0.4,0.6l0.2,0.5l0.2,0.3l0.6,0.8l0.6,0.8l0.6,0.8c0.8,1.1,1.7,2.2,2.5,3.4c0.8,1,1.5,1.9,2.5,2.9l2.8,2.9
				c0.9,0.2,1.9,0,2.8,0c2.1,0,4.2-0.6,5.9-1.6l0.6-0.3c0.8-0.6,1.3-1.4,1.7-2.2c0.8-1.8,0.8-3.5,0.4-5.3c-0.2-0.5-0.2-0.8-0.4-1.3
				c-0.4-1.6-0.4-3.4,0-5c0.2-0.2,0.2-0.5,0.4-0.8l-1.5-3l-0.6-1.3c-2.5-1.1-4.5-2.4-6.4-4c-0.9-0.8-1.9-1.8-2.8-2.7
				c-1.7,0.2-3.4,0-5.1-0.5c-1.1-0.3-2.3-0.8-3.4-1.3L31.3,38l-0.6-0.2L29,39.9z"/><path class="st6" d="M30.7,37.8"/><path class="st7" d="M37.9,63.8c0.6,0.8,1.3,1.4,2.1,2.4l0.9,1l0.4,0.3L40,68.2c-0.9-0.8-1.9-1.8-2.8-2.9
				c-0.8-0.8-1.7-1.8-2.5-2.9c-0.8-1.1-1.7-2.2-2.5-3.4l-0.6-0.8l-0.6-0.8l-0.6-0.8l-0.2-0.3l-0.2-0.5l-0.4-0.6
				c-0.4-1-0.8-1.8-0.9-2.7c-0.2-0.2-0.2-0.5-0.2-0.6c-0.2-0.2-0.2-0.5-0.2-0.6v-1.8c0-0.6,0-1.4,0.2-2.1v-0.2l0.2-0.3
				c0-0.2,0.2-0.3,0.2-0.5c0.2-0.2,0.2-0.3,0.2-0.5v-1c0-1.3,0-2.6-0.4-3.9c-0.2-0.3-0.2-0.6-0.4-1l0.4-0.3l1.9-1.9l0.6,0.3L29.8,39
				c0.2,1,0.4,1.8,0.6,2.6c0.2,1.3,0.2,2.6-0.2,3.7C30,45.4,30,45.5,30,45.7l-0.2,0.5v4.5c0,0.2,0,0.5,0.2,0.6
				c0.2,0.2,0.2,0.5,0.2,0.6l0.2,0.6l0.2,0.6c0.2,0.2,0.2,0.5,0.4,0.8c0.4,0.8,0.8,1.4,1.1,2.1l0.4,0.8l0.6,0.8l0.6,0.8
				C34.9,60.5,36.4,62.2,37.9,63.8L37.9,63.8z M50.6,68.5l-0.2,0.2h-0.2l0.6-0.3c0.9-0.8,1.7-1.8,2.1-2.7c0.4-1.1,0.6-2.2,0.6-3.4
				c0-1,0-1.9-0.2-2.9c-1.1-2.9-1.1-5.8,0-8.5l2.5-1.1c-0.8,1.6-0.9,3.4-0.8,5.1c0,0.3,0,0.8,0.2,1.4l0.6,1.9
				c0.8,4.3-0.4,7.4-3.2,9.3L50.6,68.5z M52.5,67.5"/><path class="st8" d="M49.2,42.5c-2.3-1.4-4.5-3.2-6.6-5.1l-0.6-0.6l-2.5,1.1c0.9,1,1.9,1.9,3,2.9c1.9,1.6,4,3.1,6.4,4.3l1.5,0.6
				l2.5-1.1c-0.8-0.5-1.5-0.8-2.1-1.1L49.2,42.5L49.2,42.5z M49.2,42.5"/><path class="st9" d="M50.8,45.7l2.5,5.1l2.5-1.1l-2.5-5.1L50.8,45.7z M53.2,44.6"/></g><path class="st10" d="M36.7,57.9l8.6,4.4c1.8,0,3-0.9,3-2.6c0-1-0.3-1.9-0.8-2.7c-0.3-0.8-0.5-1.6-0.5-2.4c0-0.9,0.1-1.8,0.5-2.6
			c0.1-0.2,0.1-0.3,0.1-0.5c0-0.3-0.1-0.6-0.2-0.9c0,0.4-0.1,0.6-0.4,0.7c-0.3,0.1-0.6,0.2-0.9,0.4c-0.5,0.4-0.9,0.8-1.1,1.4
			l-0.2,0.4c0,0.1-0.1,0.1-0.2,0.1c0,0-0.1,0-0.1,0c-0.1-0.1-0.2-0.2-0.3-0.3l-0.3-0.6c-0.7-1.3-1.1-2.7-1.1-4.2
			c0-0.8,0.2-1.7,0.6-2.4c-2.6-0.6-4.5,0.9-4.5,3.7v0.4c0,1.4-0.5,1.9-1.5,1.4l-0.1,0c-0.6-0.4-1-0.9-1.1-1.6
			c0.1-1.5,0.5-2.7,1.1-3.5c-2.2-0.2-3.8,1.6-3.8,4.8c0,0.6,0.1,1.2,0.2,1.8C34.1,54.5,35.1,56.3,36.7,57.9L36.7,57.9z M36.7,57.9"/><path class="st11" d="M35.4,57.4l8.6,4.4c1.8,0,3-0.9,3-2.6c0-1-0.3-1.9-0.8-2.7c-0.3-0.8-0.5-1.6-0.5-2.4c0-0.9,0.1-1.8,0.5-2.6
			c0.1-0.2,0.1-0.3,0.1-0.5c0-0.3-0.1-0.6-0.2-0.9c0,0.4-0.1,0.6-0.4,0.7c-0.3,0.1-0.6,0.2-0.9,0.4c-0.5,0.4-0.9,0.8-1.1,1.4
			l-0.2,0.4c0,0.1-0.1,0.1-0.2,0.1c0,0-0.1,0-0.1,0c-0.1-0.1-0.2-0.2-0.3-0.3l-0.3-0.6c-0.7-1.3-1.1-2.7-1.1-4.2
			c0-0.8,0.2-1.7,0.6-2.4c-2.6-0.6-4.5,0.9-4.5,3.7v0.4c0,1.4-0.5,1.9-1.5,1.4l-0.1,0c-0.6-0.4-1-0.9-1.1-1.6
			c0.1-1.5,0.5-2.7,1.1-3.5c-2.2-0.2-3.8,1.6-3.8,4.8c0,0.6,0.1,1.2,0.2,1.8C32.8,54,33.8,55.8,35.4,57.4L35.4,57.4z M35.4,57.4"/></g><rect class="st12" width="100" height="100"/></g></svg>