<?xml version="1.0" encoding="utf-8"?><!--Generator: Adobe Illustrator 27.0.0, SVG Export Plug-In . SVG Version: 6.00 Build 0)--><svg version="1.1" id="图层_1" xmlns="http://www.w3.org/2000/svg" xmlns:xlink="http://www.w3.org/1999/xlink" x="0px" y="0px" viewBox="0 0 60 60" style="enable-background:new 0 0 60 60" xml:space="preserve"><style type="text/css">.st1{fill:none;}</style><g><path class="st0" d="M40.6,33.9c-2.2,0-3.8,1.8-3.8,3.8c0,2.2,1.8,3.8,3.8,3.8c2.2,0,3.8-1.8,3.8-3.8
		C44.5,35.7,42.7,33.9,40.6,33.9 M40.6,45.4c-4.2,0-7.7-3.4-7.7-7.7s3.4-7.7,7.7-7.7s7.7,3.4,7.7,7.7C48.2,42,44.8,45.4,40.6,45.4
		 M45.2,50.7h0.1l0,0l3.7-2.1c-0.1-0.2-0.5-1.2-0.5-2.3c0-3.1,2.5-5.7,5.6-5.9c0-0.2,0.3-1.7,0.3-2.7c0-1-0.2-2.4-0.3-2.7
		c-3.1-0.2-5.6-2.7-5.6-5.9c0-1,0.4-2.1,0.5-2.3l-3.6-2l0,0h-0.1c-0.4,0.4-0.8,0.8-1.3,1.1c-1.1,0.8-2.2,1.1-3.1,1.1
		c-0.9,0-2.1-0.4-3.2-1.2c-0.5-0.3-0.9-0.7-1.3-1.1h-0.1l0,0l-3.7,2.1c0.1,0.2,0.5,1.2,0.5,2.3c0,3.1-2.5,5.7-5.6,5.9
		c0,0.2-0.3,1.7-0.3,2.7c0,1,0.2,2.4,0.3,2.7c3.1,0.2,5.6,2.7,5.6,5.9c0,1-0.4,2.1-0.5,2.3l3.5,2l0,0c0.1,0,0.1,0,0.1,0
		c0.4-0.4,0.8-0.8,1.3-1.2c1.1-0.8,2.2-1.2,3.2-1.2c1,0,2.1,0.4,3.2,1.2C44.6,50.1,45.1,50.7,45.2,50.7 M46.3,56.3
		c-0.7,0-1.4-0.3-1.9-0.8c-0.6-0.6-2.5-2.4-4.1-2.4c-1.6,0-3.5,1.8-4,2.4c-0.4,0.5-1.1,0.7-1.9,0.7c-0.3,0-0.6-0.1-0.9-0.2l0,0
		l-4.8-2.7l0,0c-0.8-0.6-1.2-1.8-0.7-2.8c0,0,0.4-1,0.4-2c0-2.8-2.3-5.1-5.1-5.1h-0.2c-0.8,0-1.4-0.7-1.7-1.8c0-0.1-0.4-2.2-0.4-3.8
		c0-1.7,0.4-3.7,0.4-3.8c0.2-1.1,0.8-1.9,1.7-1.8h0.2c2.8,0,5.1-2.3,5.1-5.1c0-0.9-0.4-2-0.4-2c-0.4-1-0.1-2.2,0.8-2.8l0,0l5.1-2.8
		H34c0.3-0.1,0.6-0.2,0.9-0.2c0.7,0,1.3,0.3,1.9,0.7c0.6,0.6,2.5,2.3,4,2.3s3.4-1.6,4-2.2c0.4-0.4,1.1-0.7,1.9-0.7
		c0.3,0,0.6,0.1,0.9,0.2l0,0l4.9,2.7l0,0c0.8,0.6,1.2,1.8,0.7,2.8c0,0-0.4,1-0.4,2c0,2.8,2.3,5.1,5.1,5.1l0,0c0.8,0,1.4,0.7,1.7,1.8
		c0,0.1,0.4,2.2,0.4,3.8c0,1.7-0.4,3.7-0.4,3.8c-0.2,1.1-0.8,1.9-1.7,1.8h-0.2c-2.8,0-5.1,2.3-5.1,5.1c0,0.9,0.4,2,0.4,2
		c0.4,1,0.1,2.2-0.7,2.8l0,0l-5,2.7l0,0C47,56.3,46.7,56.3,46.3,56.3L46.3,56.3z M57.8,20c0,1.3-1.1,2.5-2.5,2.5
		c-1.3,0-2.5-1.1-2.5-2.5v-10c0-0.7-0.5-1.2-1.2-1.2H6.3c-0.7,0-1.2,0.5-1.2,1.2V40c0,0.7,0.5,1.2,1.2,1.2h11.3
		c1.3,0,2.5,1.1,2.5,2.5c0,1.3-1.1,2.5-2.5,2.5H2.5c-1.3,0-2.5-1.1-2.5-2.5l0,0V6.1c0-1.3,1.1-2.5,2.5-2.5h52.8
		c1.3,0,2.5,1.1,2.5,2.5l0,0L57.8,20L57.8,20z M11.3,53.9c0-1.3,1.1-2.5,2.5-2.5h10c1.3,0,2.5,1.1,2.5,2.5c0,1.3-1.1,2.5-2.5,2.5
		l0,0h-10C12.4,56.4,11.3,55.2,11.3,53.9L11.3,53.9L11.3,53.9z"/><rect class="st1" width="60" height="60"/></g></svg>