<?xml version="1.0" encoding="utf-8"?><svg version="1.1" id="图层_1" xmlns="http://www.w3.org/2000/svg" xmlns:xlink="http://www.w3.org/1999/xlink" x="0px" y="0px" viewBox="0 0 200 200" style="enable-background:new 0 0 200 200" xml:space="preserve"><g fill="#979BA5"><path d="M166.6,69.1c-3.8-0.7-7.6-1.6-11.4-2.2c-10.7-1.7-21.2-0.8-31.5,2.5c-2.4,0.8-3.5,0.3-4.6-1.9c-3.5-6.8-7.4-13.3-10.9-20.1
		c-2.4-4.5-5.6-7.4-10.9-6.9c-5.4,0.5-8.4,3.9-10,8.8C81.6,66,76,82.7,70.5,99.5c-0.4,1.1-0.7,2.1-1.3,4c-1.3-2-2.3-3.5-3.2-5
		c-3.4-5.5-6.9-11-10.3-16.6c-1.9-3.1-4.4-4.5-8-4.5c-7,0.1-14,0-21,0c-4.6,0-7.7,2.6-7.8,6.4c-0.1,3.9,3,6.6,7.9,6.6
		c5.4,0.1,10.8-0.2,16.1,0.1c1.5,0.1,3.5,1.2,4.4,2.5c4.2,6.4,8.1,12.9,12.1,19.4c4.3,7,8,8.4,16.3,6.2c-0.8,5.4-1.6,10.6-2.5,16.3
		c-1.2,0-2.4,0-3.6,0c-19,0-38.1-0.1-57.1,0.1c-5.2,0-9-1.7-11.1-6.5c0-33.6,0-67.1,0-100.7c2-2,4-4,6-6c51.1,0,102.2,0,153.2,0
		c2,2,4,4,6,6C166.6,41.6,166.6,55.3,166.6,69.1z"/><path d="M1.3,154c2.4-4.6,6.1-6.2,11.3-6.2c19,0.2,38,0.1,57.1,0.1c1.4,0,2.7,0,4.3,0c1,4.3,2,8.3,3.2,13c-1.5,0-2.8,0-4.1,0
		c-15,0-30,0-45,0c-1.6,0-3.3,0.1-4.8,0.5c-2.8,0.9-4.3,3.1-4.4,5.9c0,3,1.6,5.3,4.6,6.1c1.4,0.4,3,0.5,4.4,0.5
		c17.6,0,35.3,0,52.9,0.1c1.1,0,2.7,0.3,3.2,1c3.1,3.9,6,8,8.9,12c-28.5,0-57.1,0-85.6,0c-2-2-4-4-6-6C1.3,172,1.3,163,1.3,154z"/><path d="M85.3,96.3c4-12.1,8.3-25.2,13-39.3c3.7,6.7,6.9,12.6,9.8,17.8C100.1,82.3,92.4,89.6,85.3,96.3z"/><path d="M191.7,123.4h-5.9c-1-3.4-2.4-6.7-4.1-9.8l4.1-4.1c3.2-3.2,3.2-8.5,0-11.8l-5.8-5.9c-3.2-3.2-8.5-3.2-11.8,0l-4.1,4.1
	c-3.1-1.8-6.4-3.1-9.8-4V86c0-4.5-3.7-8.3-8.3-8.3l0,0h-8.3c-4.5,0-8.3,3.7-8.3,8.3v5.9c-3.4,0.9-6.7,2.3-9.8,4l-4.1-4.1
	c-3.2-3.2-8.5-3.2-11.8,0L98,97.7c-3.2,3.2-3.2,8.5,0,11.8l4.1,4.1c-1.8,3.1-3.2,6.4-4.1,9.8h-5.8c-4.5,0-8.3,3.7-8.3,8.3v8.3
	c0,4.5,3.7,8.3,8.3,8.3l0,0h5.9c1,3.4,2.4,6.7,4.1,9.8l-4.1,4.1c-3.2,3.2-3.2,8.5,0,11.8l5.9,5.9c3.2,3.2,8.5,3.2,11.8,0l4.1-4.1
	c3.1,1.8,6.3,3.1,9.7,4.1v5.9c0,4.5,3.7,8.3,8.3,8.3l0,0h8.3c4.5,0,8.3-3.7,8.3-8.3l0,0v-5.9c3.4-0.9,6.7-2.3,9.8-4l4.1,4.1
	c3.2,3.2,8.5,3.2,11.8,0l5.9-5.9c3.2-3.2,3.2-8.5,0-11.8l-4.1-4.1c1.8-3.1,3.2-6.4,4.1-9.8h5.8c4.5,0,8.3-3.7,8.3-8.3l0,0v-8.4
	C200,127.1,196.3,123.4,191.7,123.4L191.7,123.4z M153.8,147.4c-6.4,6.6-16.9,6.8-23.4,0.4c-6.6-6.4-6.8-16.9-0.4-23.4
	c6.4-6.6,16.9-6.8,23.4-0.4l0,0C160,130.3,160.3,140.8,153.8,147.4z"/></g></svg>