<svg viewBox="0 0 1024 1024" version="1.1" xmlns="http://www.w3.org/2000/svg" width="200" height="200"><path d="M512 85.333333c235.648 0 426.666667 191.018667 426.666667 426.666667s-191.018667 426.666667-426.666667 426.666667S85.333333 747.648 85.333333 512 276.352 85.333333 512 85.333333z m42.666667 87.978667V298.666667a42.666667 42.666667 0 1 1-85.333334 0V173.312C314.944 192.554667 192.554667 314.944 173.312 469.333333H298.666667a42.666667 42.666667 0 1 1 0 85.333334H173.312C192.576 709.098667 314.944 831.466667 469.333333 850.709333V725.333333a42.666667 42.666667 0 1 1 85.333334 0v125.354667c154.410667-19.264 276.757333-141.610667 296.021333-296L725.333333 554.666667a42.666667 42.666667 0 1 1 0-85.333334h125.354667c-19.242667-154.389333-141.610667-276.757333-296-296.021333z" fill="#4180FF"/></svg>