<svg viewBox="0 0 1024 1024" version="1.1" xmlns="http://www.w3.org/2000/svg" width="200" height="200"><path d="M0 102.4a102.4 102.4 0 1 1 204.8 0 102.4 102.4 0 0 1-204.8 0z m102.4-34.112a34.112 34.112 0 1 0 0 68.224 34.112 34.112 0 0 0 0-68.224zM819.2 921.6a102.4 102.4 0 1 1 204.8 0 102.4 102.4 0 0 1-204.8 0z m102.4-34.112a34.112 34.112 0 1 0 0 68.224 34.112 34.112 0 0 0 0-68.224z" fill="#4e5969"/><path d="M477.888 136.512h-307.2V68.288h375.424v819.2h307.2v68.224H477.888v-819.2z" fill="#4e5969"/></svg>