<svg viewBox="0 0 1024 1024" version="1.1" xmlns="http://www.w3.org/2000/svg" width="200" height="200"><path d="M213.333333 597.333333a42.666667 42.666667 0 0 1 42.666667 42.666667v128h128a42.666667 42.666667 0 1 1 0 85.333333H256a85.333333 85.333333 0 0 1-85.333333-85.333333v-128a42.666667 42.666667 0 0 1 42.666666-42.666667zM810.666667 597.333333a42.666667 42.666667 0 0 0-42.666667 42.666667v128h-128a42.666667 42.666667 0 1 0 0 85.333333h128a85.333333 85.333333 0 0 0 85.333333-85.333333v-128a42.666667 42.666667 0 0 0-42.666666-42.666667zM810.666667 426.666667a42.666667 42.666667 0 0 1-42.666667-42.666667V256h-128a42.666667 42.666667 0 1 1 0-85.333333h128a85.333333 85.333333 0 0 1 85.333333 85.333333v128a42.666667 42.666667 0 0 1-42.666666 42.666667zM213.333333 426.666667a42.666667 42.666667 0 0 0 42.666667-42.666667V256h128a42.666667 42.666667 0 0 0 0-85.333333H256a85.333333 85.333333 0 0 0-85.333333 85.333333v128a42.666667 42.666667 0 0 0 42.666666 42.666667z" fill="#4180FF"/></svg>