<?xml version="1.0" encoding="utf-8"?><!--Generator: Adobe Illustrator 25.0.0, SVG Export Plug-In . SVG Version: 6.00 Build 0)--><svg version="1.1" id="图层_1" xmlns="http://www.w3.org/2000/svg" xmlns:xlink="http://www.w3.org/1999/xlink" x="0px" y="0px" width="40px" height="40px" style="enable-background:new 0 0 40 40" xml:space="preserve"><style type="text/css">.topology-delete-st0{fill:#979BA5;}</style><g><path class="topology-delete-st0" d="M35,3.6h-7.6c0-1.3-1.1-3-2.5-3h-8.7c-1.4,0-2.5,1.6-2.5,3H5.9c-1.7,0-3.5,0.2-3.5,1.8v2.5h35.2V5.4
		C37.6,3.9,36.6,3.6,35,3.6z"/><path class="topology-delete-st0" d="M5.5,10.8v23.3c0,2.4,2.5,5.3,5,5.3h19.9c2.5,0,4.2-2.9,4.2-5.3V10.8H5.5z M13.8,34.6h-3.1V13.9h3.1V34.6z
		 M21.5,34.6h-3.1V13.9h3.1V34.6z M29.2,34.6h-3.1V13.9h3.1V34.6z"/></g></svg>