<?xml version="1.0" encoding="utf-8"?><!--Generator: Adobe Illustrator 27.0.0, SVG Export Plug-In . SVG Version: 6.00 Build 0)--><svg version="1.1" id="图层_1" xmlns="http://www.w3.org/2000/svg" xmlns:xlink="http://www.w3.org/1999/xlink" x="0px" y="0px" viewBox="0 0 60 60" style="enable-background:new 0 0 60 60" xml:space="preserve"><style type="text/css">.st0{fill:none;}</style><g><rect class="st0" width="60" height="60"/><g><path d="M0.7,45h8.7v4.2H0.7V45z M50.6,45h8.7v4.2h-8.7V45z M31.8,33.6V6.2c0-1-0.8-1.8-1.8-1.8c-1,0-1.8,0.8-1.8,1.8
			v27.4c0,1,0.8,1.8,1.8,1.8C31,35.5,31.8,34.6,31.8,33.6z"/><path d="M30,0.9c-0.8,0-1.6,0.3-2.2,0.9L16.6,13c-0.8,0.8-0.8,2.1,0,2.9c0.8,0.8,2.1,0.8,2.9,0L30,5.5l10.4,10.4
			c0.8,0.8,2.1,0.8,2.9,0c0.8-0.8,0.8-2.1,0-2.9L32.2,1.8C31.5,1.2,30.8,0.9,30,0.9L30,0.9z"/><path d="M59.3,59.1H0.6V35h20c1.2,0,2.1,0.9,2.1,2.1c0,1.2-0.9,2.1-2.1,2.1H4.8V55h50.4V39.2H39.4
			c-1.2,0-2.1-0.9-2.1-2.1s0.9-2.1,2.1-2.1h19.9V59.1z"/><path d="M30,49.3c-6.3,0-11.4-5.2-11.4-11.5c0-1.2,0.9-2.1,2.1-2.1c1.2,0,2.1,0.9,2.1,2.1c0,4,3.3,7.3,7.3,7.3
			s7.3-3.3,7.3-7.3c0-1.2,0.9-2.1,2.1-2.1c1.2,0,2.1,0.9,2.1,2.1C41.4,44.1,36.3,49.3,30,49.3L30,49.3z"/></g></g></svg>