<?xml version="1.0" standalone="no"?><!DOCTYPE svg PUBLIC "-//W3C//DTD SVG 1.1//EN" "http://www.w3.org/Graphics/SVG/1.1/DTD/svg11.dtd"><svg t="1697770909625" class="icon" viewBox="0 0 1024 1024" version="1.1" xmlns="http://www.w3.org/2000/svg" p-id="4016" xmlns:xlink="http://www.w3.org/1999/xlink" width="240" height="240"><path d="M198.917 822.276V197.939h624.558v624.337H198.917z m254.088-194.991c7.323-9.675 13.996-18.411 20.583-27.211 16.153-21.578 32.231-43.211 48.406-64.772 16.184-21.573 32.475-43.066 48.672-64.629 17.253-22.97 34.306-46.091 51.767-68.901 4.613-6.026 7.425-11.931 6.779-19.781-0.679-8.251-0.142-16.601-0.163-24.908-0.003-1.198-0.152-2.395-0.234-3.601H393.706v39.565h175.612c-7.18 9.486-13.852 18.223-20.44 27.023-16.153 21.578-32.231 43.211-48.406 64.772-16.183 21.572-32.474 43.063-48.669 64.626-17.252 22.97-34.306 46.091-51.766 68.902-4.612 6.025-7.428 11.929-6.781 19.78 0.68 8.251 0.143 16.601 0.163 24.908 0.003 1.198 0.152 2.396 0.234 3.604h235.11v-39.375c-58.396-0.002-116.495-0.002-175.758-0.002z" fill="#d81e06" p-id="4017"/></svg>