<?xml version="1.0" encoding="utf-8"?>
<!-- Generator: Adobe Illustrator 27.0.0, SVG Export Plug-In . SVG Version: 6.00 Build 0)  -->
<svg version="1.1" id="图层_1" xmlns="http://www.w3.org/2000/svg" xmlns:xlink="http://www.w3.org/1999/xlink" x="0px" y="0px"
	 viewBox="0 0 209 233.6" style="enable-background:new 0 0 209 233.6;" xml:space="preserve">
<style type="text/css">
	.st0{fill:#62C3F8;}
	.st1{fill:#337AC5;}
</style>
<g>
	<path class="st0" d="M0,94.3c0,0,1-4,8-6l81-29c0,0,4,0,6,3c0,0,1,91.1,0,92.1s-3,41.9-43,61.9c-20,10-51-50-51-74
		C1,130.3,0,94.3,0,94.3z"/>
	<path class="st1" d="M209,2.5c0,45,0,90,0,135c-0.9,5-1.5,10.1-2.7,15.1c-5.5,24.1-18.2,43.5-37.5,59c-27.9,22.4-59.1,26.1-92.8,18
		c-4.1-1-5-4.3-2.1-7.3c3.7-3.8,7.6-7.4,11.3-11.3c10.9-11.3,20.3-23.8,23.2-39.5c2.7-14.5,4.6-29.3,5-44
		c0.8-28.1,0.2-56.3,0.2-84.5c0-9.4,2-11.9,10.6-15c9.9-3.5,19.7-7.1,29.6-10.6c15.2-5.4,30.3-10.9,45.5-16.3
		C202.8,0,206.3-1.2,209,2.5z"/>
</g>
</svg>
